<?xml version="1.0" standalone="no"?>
<!DOCTYPE svg PUBLIC "-//W3C//DTD SVG 20010904//EN"
 "http://www.w3.org/TR/2001/REC-SVG-20010904/DTD/svg10.dtd">
<svg version="1.0" xmlns="http://www.w3.org/2000/svg"
 width="225.000000pt" height="224.000000pt" viewBox="0 0 225.000000 224.000000"
 preserveAspectRatio="xMidYMid meet">

<g transform="translate(0.000000,224.000000) scale(0.100000,-0.100000)"
fill="#000000" stroke="none">
<path d="M1108 2088 c-62 -75 -77 -101 -80 -142 -1 -20 -3 -36 -5 -36 -2 0
-14 24 -27 53 -21 48 -95 127 -118 127 -4 0 -8 -17 -8 -39 0 -32 6 -43 34 -65
34 -25 93 -97 67 -82 -22 14 -94 -4 -145 -35 l-49 -31 42 -24 43 -24 47 40
c60 51 87 52 38 2 -20 -21 -37 -45 -37 -53 0 -17 -64 -21 -89 -5 -9 6 -12 5
-7 -2 4 -6 -1 -10 -12 -9 -28 2 -111 -43 -148 -79 -18 -19 -36 -34 -39 -34
-13 0 4 98 20 124 11 17 13 26 6 26 -7 0 -11 8 -10 18 3 32 -13 82 -27 82 -18
0 -30 -31 -45 -112 -9 -52 -8 -71 4 -107 20 -57 14 -67 -26 -37 -18 13 -67 43
-111 66 -86 47 -85 48 -50 -37 12 -27 20 -33 44 -33 38 0 99 -25 122 -50 21
-22 24 -37 6 -23 -21 17 -168 9 -216 -11 l-43 -18 50 -23 49 -23 48 23 c27 13
50 22 52 20 2 -2 -9 -25 -24 -52 -30 -53 -26 -50 30 20 21 27 46 47 57 47 23
0 25 -13 2 -31 -32 -27 -53 -93 -46 -144 l6 -47 19 23 c20 26 20 26 55 -28 11
-17 13 -17 32 7 11 13 17 29 14 34 -4 5 -10 -1 -15 -13 -11 -30 -25 -19 -38
31 -11 41 -5 138 9 138 10 0 70 -138 63 -145 -3 -3 -7 -12 -8 -20 -1 -7 -7
-30 -14 -49 -11 -33 -9 -38 28 -85 l40 -50 35 42 c19 23 47 63 63 88 16 25 33
46 37 48 5 1 31 -29 57 -68 58 -82 70 -92 70 -57 0 16 -6 26 -15 26 -23 0 -19
8 33 69 27 31 61 75 77 99 15 23 29 42 30 42 2 0 12 -15 22 -32 11 -18 45 -63
76 -100 31 -36 57 -69 57 -72 0 -3 -7 -6 -15 -6 -11 0 -15 -12 -15 -50 0 -63
-18 -74 -117 -75 l-72 0 25 -26 c30 -31 30 -37 2 -41 -21 -3 -23 -9 -28 -83
l-5 -80 -50 -17 c-27 -9 -76 -17 -107 -18 l-58 0 0 -59 0 -59 -50 -17 c-39
-13 -48 -20 -40 -30 6 -7 8 -19 4 -28 -4 -11 4 -17 35 -22 25 -4 58 -21 87
-44 28 -24 68 -45 107 -56 34 -9 68 -19 76 -21 9 -3 11 -8 5 -14 -5 -5 -29 -3
-57 4 -26 7 -44 15 -41 19 4 4 2 7 -4 7 -6 0 -10 -9 -9 -19 0 -11 6 -17 14
-14 7 3 13 0 13 -6 0 -6 8 -11 18 -12 10 0 12 -3 5 -6 -19 -7 -112 25 -157 54
-30 19 -35 27 -25 34 11 7 10 9 -4 9 -28 0 -77 29 -77 45 0 8 -5 15 -12 15 -9
0 -9 3 -1 11 18 18 3 49 -25 49 -25 0 -25 0 -6 -21 l19 -22 -35 17 -35 17 38
-31 c20 -18 37 -38 37 -45 0 -7 11 -16 25 -19 14 -4 24 -10 23 -14 -8 -22 70
-82 107 -82 20 0 77 -29 87 -44 6 -8 8 -8 8 1 0 14 37 6 70 -17 30 -21 167
-25 218 -7 26 9 35 9 41 -2 7 -11 14 -10 37 5 16 10 31 21 34 24 3 3 26 13 52
22 53 19 169 107 188 144 8 13 17 24 21 24 19 0 75 101 94 168 12 40 24 70 27
67 3 -3 4 6 3 20 -2 14 1 27 6 31 5 3 9 13 9 22 0 15 -2 15 -11 2 -8 -11 -9
-7 -5 19 3 18 6 41 7 50 0 12 2 11 9 -4 16 -37 11 103 -6 171 -17 68 -28 77
-26 22 1 -33 -3 -31 -29 16 -8 13 -8 17 0 12 7 -5 11 2 11 16 0 17 -3 19 -9 9
-7 -10 -15 -4 -32 28 -13 22 -30 41 -36 41 -7 0 -13 9 -13 21 0 12 -5 19 -12
17 -8 -3 -15 -28 -18 -59 -5 -51 -7 -55 -40 -66 -45 -15 -109 -16 -166 -2
l-44 11 0 54 c0 44 -3 54 -20 59 -18 6 -14 14 41 78 51 61 57 73 42 78 -10 3
-28 9 -40 14 -13 4 -20 11 -17 16 3 5 11 6 17 2 8 -4 7 -1 -1 9 -16 20 -99 39
-130 31 -12 -3 -32 -3 -44 0 -21 6 -23 12 -25 78 -1 40 -6 75 -10 78 -4 3 -9
11 -9 16 -1 6 -5 20 -8 32 -6 19 -3 22 31 26 l38 4 -42 1 c-23 1 -44 5 -47 10
-8 13 78 0 102 -16 13 -9 47 -17 76 -18 50 -1 50 -1 21 12 l-30 12 31 0 c70
-2 71 23 2 58 -53 27 -132 36 -175 21 -35 -13 -29 11 17 72 34 45 40 60 40
102 0 27 -4 49 -9 49 -5 0 -28 -24 -53 -52z m9 -88 c-30 -33 -67 -98 -67 -117
0 -3 14 -3 32 1 36 7 35 5 -8 -17 l-31 -16 2 32 c1 18 9 47 18 64 21 40 78
106 85 99 3 -3 -11 -23 -31 -46z m-111 -177 c-3 -27 -8 -92 -12 -145 -5 -78
-9 -96 -20 -91 -8 3 -25 -2 -39 -11 -13 -9 -29 -16 -36 -16 -6 0 -18 -8 -27
-18 -10 -10 -29 -24 -44 -30 -23 -10 -28 -9 -33 8 -8 24 21 54 68 69 20 7 37
17 39 23 2 6 16 11 31 11 15 0 27 4 27 9 0 16 -47 1 -135 -43 l-81 -39 -52 25
c-29 14 -57 25 -63 25 -5 0 -7 5 -4 11 4 6 14 8 22 5 8 -3 11 -2 8 3 -7 12 31
24 46 15 8 -5 9 -3 4 6 -6 10 -3 12 13 8 12 -4 20 -2 16 3 -3 5 6 9 19 9 13 0
37 10 53 22 25 20 27 20 14 3 -14 -20 -14 -20 8 -1 12 11 22 25 22 31 0 12 21
25 39 25 5 0 5 -18 1 -40 -4 -22 -5 -40 -2 -40 2 0 20 9 38 21 29 18 34 26 34
59 0 34 34 130 46 130 2 0 2 -21 0 -47z m44 -18 c1 17 3 17 11 -5 6 -14 8 -44
5 -68 -5 -37 -2 -49 21 -80 15 -20 23 -34 19 -30 -5 4 -15 1 -23 -7 -20 -21
-53 -19 -54 3 0 15 -2 14 -10 -3 -8 -17 -8 -16 -3 5 3 14 6 33 5 43 0 9 4 17
10 17 13 0 11 28 -2 32 -8 3 -9 21 -4 58 6 42 10 50 16 35 l8 -20 1 20z m-366
-284 c9 -7 13 -17 10 -22 -3 -5 0 -9 6 -9 6 0 8 -4 5 -10 -3 -5 0 -10 7 -10 8
0 7 -5 -5 -17 -9 -9 -18 -15 -19 -12 -2 2 -13 25 -25 51 -22 47 -14 58 21 29z
m607 -423 c22 -43 120 -168 184 -237 36 -38 65 -71 65 -74 0 -3 -13 -8 -30
-12 l-30 -7 0 -87 0 -88 -62 -19 c-85 -26 -233 -25 -303 2 l-50 20 -3 87 -3
88 -29 5 -28 6 85 97 c47 53 106 128 131 168 26 40 50 72 54 73 4 0 13 -10 19
-22z m-476 -578 c3 -6 -1 -7 -9 -4 -18 7 -21 14 -7 14 6 0 13 -4 16 -10z m265
-25 c0 -22 -4 -25 -32 -25 -46 0 -68 15 -34 24 14 3 26 11 26 16 0 6 9 10 20
10 15 0 20 -7 20 -25z"/>
<path d="M1051 1764 c0 -11 3 -14 6 -6 3 7 2 16 -1 19 -3 4 -6 -2 -5 -13z"/>
<path d="M1092 686 l3 -80 45 -14 c64 -19 194 -18 263 2 l57 17 0 80 c0 72 -2
80 -17 75 -40 -11 -203 -16 -276 -8 l-78 8 3 -80z"/>
<path d="M1338 1803 c7 -3 16 -2 19 1 4 3 -2 6 -13 5 -11 0 -14 -3 -6 -6z"/>
<path d="M1431 1776 c3 -3 44 -29 92 -58 50 -31 122 -87 169 -133 53 -52 70
-65 49 -38 -42 55 -137 138 -203 177 -52 31 -118 63 -107 52z"/>
<path d="M1375 1740 c3 -5 8 -10 11 -10 2 0 4 5 4 10 0 6 -5 10 -11 10 -5 0
-7 -4 -4 -10z"/>
<path d="M1411 1711 c-11 -19 -5 -31 13 -31 6 0 5 4 -2 9 -11 6 -10 11 3 25 9
9 12 16 6 16 -6 0 -15 -8 -20 -19z"/>
<path d="M1364 1713 c-7 -2 -9 -13 -6 -25 4 -18 2 -20 -16 -16 -12 4 -20 2
-16 -3 11 -18 35 -9 45 17 11 29 10 33 -7 27z"/>
<path d="M1459 1708 c10 -13 9 -22 -4 -47 -8 -17 -13 -31 -11 -31 3 0 13 14
22 31 15 29 15 33 -2 48 -17 15 -17 15 -5 -1z"/>
<path d="M1497 1651 c-4 -19 -5 -36 -2 -39 3 -3 5 3 5 12 0 10 5 16 11 14 18
-6 13 -22 -12 -35 -14 -7 -17 -13 -9 -13 8 0 31 14 50 31 19 17 25 26 14 20
-23 -11 -36 -3 -46 29 -2 8 -8 -1 -11 -19z"/>
<path d="M1178 1653 c6 -2 10 -9 6 -14 -3 -5 0 -9 5 -9 6 0 11 5 11 11 0 6 7
9 15 5 8 -3 15 -1 15 4 0 6 -15 10 -32 9 -18 0 -27 -3 -20 -6z"/>
<path d="M1397 1639 c7 -7 15 -10 18 -7 3 3 -2 9 -12 12 -14 6 -15 5 -6 -5z"/>
<path d="M1325 1620 c-3 -4 2 -11 11 -14 23 -9 46 -7 40 3 -8 12 -45 21 -51
11z"/>
<path d="M1602 1615 c17 -18 17 -20 -9 -47 -15 -15 -24 -30 -22 -32 3 -3 17
10 31 28 l27 34 -22 18 c-22 18 -22 18 -5 -1z"/>
<path d="M1655 1562 c18 -22 18 -23 -16 -60 l-34 -37 40 37 40 38 -25 22 -24
23 19 -23z"/>
<path d="M1670 1469 l-35 -30 38 26 c33 24 43 35 34 35 -1 0 -18 -14 -37 -31z"/>
<path d="M1723 1431 c17 -6 17 -8 -2 -33 -12 -14 -21 -29 -21 -33 0 -4 14 9
30 30 17 21 30 39 30 41 0 2 -12 4 -27 3 -22 0 -24 -2 -10 -8z"/>
<path d="M1668 1423 c6 -2 18 -2 25 0 6 3 1 5 -13 5 -14 0 -19 -2 -12 -5z"/>
<path d="M627 1399 c4 -13 8 -18 11 -10 2 7 -1 18 -6 23 -8 8 -9 4 -5 -13z"/>
<path d="M1615 1400 c2 -12 16 -35 30 -51 14 -17 25 -37 25 -45 0 -8 5 -14 10
-14 16 0 13 8 -26 71 -38 64 -45 70 -39 39z"/>
<path d="M400 1360 c-6 -11 -8 -20 -6 -20 3 0 10 9 16 20 6 11 8 20 6 20 -3 0
-10 -9 -16 -20z"/>
<path d="M1320 1323 c0 -37 3 -42 31 -52 40 -14 129 -14 163 -1 22 8 26 16 26
52 l0 43 -110 0 -110 0 0 -42z"/>
<path d="M1750 1319 c-13 -9 -13 -10 2 -6 9 3 19 1 22 -6 2 -7 5 -4 5 6 1 20
-7 21 -29 6z"/>
<path d="M367 1294 c-4 -4 -7 -17 -7 -28 1 -19 1 -20 11 -3 11 19 8 43 -4 31z"/>
<path d="M1780 1278 c0 -10 -5 -18 -12 -18 -6 0 -9 -3 -5 -6 3 -3 12 -2 21 3
10 6 12 13 6 23 -8 13 -10 12 -10 -2z"/>
<path d="M980 1202 c0 -36 4 -44 26 -52 29 -11 106 -13 153 -4 29 6 31 9 31
53 l0 46 -105 0 -105 0 0 -43z"/>
<path d="M341 1183 c-6 -32 -7 -61 -3 -65 5 -5 12 19 16 53 3 34 4 64 2 66 -2
2 -8 -22 -15 -54z"/>
<path d="M1808 1203 c7 -3 16 -2 19 1 4 3 -2 6 -13 5 -11 0 -14 -3 -6 -6z"/>
<path d="M1760 1183 c0 -10 4 -14 8 -8 4 6 11 13 16 18 5 4 2 7 -7 7 -10 0
-17 -8 -17 -17z"/>
<path d="M1823 1143 c31 -4 37 -8 37 -28 0 -13 -5 -26 -10 -28 -6 -3 -5 -4 2
-3 7 2 13 16 13 32 0 27 -3 29 -40 30 l-40 1 38 -4z"/>
<path d="M1788 1073 c6 -2 18 -2 25 0 6 3 1 5 -13 5 -14 0 -19 -2 -12 -5z"/>
<path d="M902 1043 l-82 -4 26 -34 c27 -36 26 -40 -21 -47 -15 -2 -21 -12 -23
-42 l-3 -39 68 5 c37 3 80 11 96 17 26 10 27 13 27 81 0 38 -1 69 -2 68 -2 -1
-40 -4 -86 -5z"/>
<path d="M1785 1039 c-4 -6 -4 -13 -1 -16 3 -4 6 -1 6 6 0 9 12 12 39 9 22 -2
37 0 35 4 -8 12 -72 10 -79 -3z"/>
<path d="M1780 990 c0 -5 5 -10 11 -10 5 0 7 5 4 10 -3 6 -8 10 -11 10 -2 0
-4 -4 -4 -10z"/>
<path d="M1818 973 c6 -2 18 -2 25 0 6 3 1 5 -13 5 -14 0 -19 -2 -12 -5z"/>
<path d="M1789 940 c21 -18 22 -23 10 -31 -7 -5 -18 -9 -23 -9 -5 0 -7 -2 -4
-5 3 -3 19 0 36 8 l30 12 -36 23 c-34 21 -35 21 -13 2z"/>
<path d="M332 853 l3 -98 70 -18 c83 -21 255 -19 320 5 l40 15 3 97 3 97 -38
-7 c-21 -5 -103 -8 -183 -8 -80 0 -162 3 -183 8 l-38 7 3 -98z"/>
<path d="M1740 823 c0 -4 10 -17 22 -30 l21 -23 -31 0 c-42 0 -41 -17 3 -36
50 -21 67 -16 20 6 l-40 19 33 0 c37 1 39 7 15 34 -17 19 -17 19 7 12 14 -4
31 -10 38 -12 6 -3 12 -2 12 1 0 7 -68 36 -86 36 -8 0 -14 -3 -14 -7z"/>
<path d="M1696 714 c-24 -23 -19 -48 13 -67 34 -20 57 -14 67 16 5 16 -1 27
-22 44 -34 27 -38 28 -58 7z m51 -19 c24 -17 21 -45 -5 -45 -22 0 -52 29 -45
46 7 18 23 18 50 -1z"/>
<path d="M401 699 c-1 -8 6 -24 15 -35 15 -19 15 -19 6 1 -5 11 -12 27 -15 35
-5 13 -6 13 -6 -1z"/>
<path d="M586 646 c3 -7 -9 -25 -26 -40 -17 -14 -27 -26 -22 -26 5 0 17 9 28
21 10 11 26 18 36 16 16 -5 16 -3 1 19 -17 27 -25 31 -17 10z"/>
<path d="M436 628 c46 -79 175 -225 170 -193 -1 10 -10 21 -18 24 -19 7 -81
77 -122 139 -26 38 -47 60 -30 30z"/>
<path d="M1630 622 c0 -5 16 -22 36 -37 l37 -28 18 24 c10 13 16 26 13 28 -2
3 -10 -4 -18 -14 -12 -17 -15 -17 -50 10 -20 15 -36 23 -36 17z"/>
<path d="M599 553 c-18 -21 -25 -30 -13 -20 20 16 22 16 39 -3 15 -17 16 -22
4 -37 -7 -10 4 -2 24 16 20 19 37 37 37 40 0 2 -9 -4 -20 -14 -19 -17 -21 -17
-40 0 -19 17 -19 19 -4 37 10 10 15 18 13 18 -3 0 -21 -17 -40 -37z"/>
<path d="M1590 570 c0 -15 39 -90 46 -90 3 0 3 7 0 16 -8 21 11 45 30 37 30
-11 12 8 -26 27 -45 23 -50 24 -50 10z m40 -20 c8 -5 11 -12 7 -16 -4 -4 -15
0 -24 9 -18 18 -8 23 17 7z"/>
<path d="M810 560 c20 -13 33 -13 25 0 -3 6 -14 10 -23 10 -15 0 -15 -2 -2
-10z"/>
<path d="M678 490 l-27 -37 22 -19 c22 -19 22 -19 4 2 -15 18 -15 23 -4 32 8
7 16 9 19 6 3 -3 5 3 5 13 -2 13 4 17 22 15 14 -1 23 -1 20 1 -2 1 -11 8 -19
14 -12 9 -20 4 -42 -27z"/>
<path d="M1550 515 c10 -12 10 -18 0 -30 -12 -14 -15 -14 -31 1 -11 10 -19 13
-19 9 0 -13 52 -77 57 -71 3 3 1 12 -6 19 -16 20 14 46 31 29 26 -26 27 -10 2
23 -14 19 -31 35 -36 35 -6 0 -5 -7 2 -15z"/>
<path d="M1669 453 l-24 -28 28 24 c15 14 27 26 27 28 0 8 -8 1 -31 -24z"/>
<path d="M1443 463 c-7 -2 -13 -13 -13 -24 0 -19 8 -23 48 -19 28 2 29 -18 0
-29 -12 -4 -17 -10 -11 -14 15 -9 58 27 49 41 -4 7 -20 12 -36 12 -37 0 -48
17 -18 29 13 6 16 10 8 10 -8 -1 -21 -3 -27 -6z"/>
<path d="M769 414 c-31 -34 -32 -36 -11 -31 31 7 52 -1 45 -19 -3 -8 -1 -14 5
-14 8 0 22 53 22 88 0 23 -26 12 -61 -24z m44 -5 c-4 -13 -9 -17 -15 -11 -11
11 -3 32 12 32 4 0 6 -9 3 -21z"/>
<path d="M620 416 c0 -2 8 -10 18 -17 15 -13 16 -12 3 4 -13 16 -21 21 -21 13z"/>
<path d="M856 388 c-17 -39 -11 -56 21 -64 35 -9 59 32 26 43 -7 3 -9 -4 -6
-16 6 -22 -3 -26 -25 -12 -9 5 -11 17 -6 35 8 32 22 42 37 27 17 -17 31 -13
17 4 -21 25 -50 18 -64 -17z"/>
<path d="M1325 406 c-16 -11 -17 -19 -9 -47 7 -26 16 -35 36 -37 37 -4 50 23
33 66 -15 35 -31 40 -60 18z m51 -30 c12 -48 -24 -64 -45 -20 -13 30 -7 44 19
44 12 0 22 -9 26 -24z"/>
<path d="M1260 392 c-14 -2 -29 -8 -35 -14 -7 -6 -1 -7 17 -3 l28 7 -15 -42
c-8 -24 -14 -44 -13 -46 2 -1 19 1 38 6 32 7 32 8 8 9 -33 1 -32 -1 -12 46 8
20 14 38 12 39 -2 1 -14 0 -28 -2z"/>
<path d="M953 350 c-25 -43 -30 -61 -11 -42 17 17 48 15 48 -3 0 -8 5 -15 11
-15 6 0 8 7 5 16 -3 9 -6 31 -6 50 0 46 -19 44 -47 -6z m37 0 c0 -11 -7 -20
-15 -20 -13 0 -14 4 -5 20 6 11 13 20 15 20 3 0 5 -9 5 -20z"/>
<path d="M1041 333 c1 -27 3 -40 6 -30 7 26 51 22 56 -5 3 -15 5 -10 6 14 0
20 4 43 7 52 3 9 1 16 -5 16 -6 0 -11 -12 -11 -26 0 -20 -4 -25 -16 -20 -9 3
-19 6 -24 6 -4 0 -6 9 -3 20 3 11 0 20 -6 20 -7 0 -11 -18 -10 -47z"/>
<path d="M1147 374 c-4 -4 -7 -24 -7 -45 0 -28 5 -39 19 -44 36 -11 52 4 49
49 -3 36 -6 41 -28 44 -14 2 -29 0 -33 -4z m51 -38 c4 -30 -12 -48 -35 -39
-14 5 -18 54 -6 67 15 15 38 -1 41 -28z"/>
<path d="M702 354 c10 -10 20 -16 22 -13 3 3 -5 11 -17 18 -21 13 -21 12 -5
-5z"/>
<path d="M745 330 c9 -14 64 -42 76 -38 6 2 -11 14 -36 26 -26 12 -44 18 -40
12z"/>
<path d="M1258 243 c7 -3 16 -2 19 1 4 3 -2 6 -13 5 -11 0 -14 -3 -6 -6z"/>
<path d="M1098 233 c23 -2 59 -2 80 0 20 2 1 4 -43 4 -44 0 -61 -2 -37 -4z"/>
</g>
</svg>
