<svg width="30" height="70" viewBox="0 0 30 70" fill="none" xmlns="http://www.w3.org/2000/svg">
<path d="M14.9915 33.2674L26.5913 41.3736L30 38.988L14.9915 28.4844L0 38.988L3.40872 41.3736L14.9915 33.2674Z" fill="#FF9D00"/>
<path d="M14.9915 47.4271L26.5913 55.5332L30 53.1477L14.9915 42.644L0 53.1477L3.40872 55.5332L14.9915 47.4271Z" fill="#FF9D00"/>
<path d="M14.9915 61.7516L26.5913 69.8697L30 67.4722L14.9915 56.9805L0 67.4722L3.40872 69.8697L14.9915 61.7516Z" fill="#FF9D00"/>
<path d="M14.9915 4.78305L26.5913 12.8892L30 10.5037L14.9915 0L0 10.5037L3.40872 12.8892L14.9915 4.78305Z" fill="#FF9D00"/>
<path d="M14.9915 18.9422L26.5913 27.0484L30 24.6628L14.9915 14.1592L0 24.6628L3.40872 27.0484L14.9915 18.9422Z" fill="#FF9D00"/>
</svg>
