<svg width="237" height="75" viewBox="0 0 237 75" fill="none" xmlns="http://www.w3.org/2000/svg">
<path d="M3.06407 23.9572C5.0669 24.2351 6.96709 23.1385 7.3106 21.5073L7.31096 21.5056L7.31443 21.4901C7.31914 21.4692 7.32766 21.4322 7.34029 21.3802C7.36558 21.2761 7.40723 21.1124 7.46775 20.8976C7.58899 20.4672 7.78471 19.8361 8.0741 19.0719C8.65705 17.5325 9.5987 15.5102 11.0314 13.515C13.8945 9.52783 18.4055 5.99995 25.7713 5.99995C33.4382 5.99995 39.3659 9.71759 46.4851 14.3451L46.8646 14.5919C50.5873 17.0131 54.6788 19.6741 59.3968 21.5464C63.1004 23.0161 67.1901 23.9998 71.7904 23.9998C76.3705 23.9998 80.4444 23.0248 84.1351 21.5658C88.8738 19.6926 92.9807 17.0214 96.7163 14.5919L97.0958 14.3451C104.215 9.71759 110.143 5.99995 117.81 5.99995C125.477 5.99995 131.404 9.71759 138.523 14.3451L138.903 14.5919C142.674 17.0444 146.823 19.7431 151.619 21.6187C155.274 23.0483 159.304 23.9998 163.829 23.9998C168.333 23.9998 172.348 23.0568 175.99 21.6379C180.806 19.7615 184.971 17.0528 188.755 14.5919L189.134 14.3451C196.253 9.71759 202.181 5.99995 209.848 5.99995C217.27 5.99995 222.147 9.5813 225.365 13.6307C226.967 15.6459 228.072 17.6842 228.776 19.231C229.126 19.9996 229.372 20.6344 229.527 21.0674C229.604 21.2836 229.659 21.4486 229.693 21.5538C229.71 21.6063 229.721 21.6439 229.728 21.6653L229.732 21.68L229.733 21.6832L229.733 21.6845L229.734 21.6856C230.198 23.296 232.174 24.2969 234.152 23.9217C236.133 23.546 237.364 21.9333 236.903 20.3196L233.318 20.9998C236.903 20.3196 236.903 20.3184 236.903 20.3172L236.902 20.3143L236.9 20.3073L236.894 20.2884L236.877 20.2311C236.863 20.1844 236.843 20.1208 236.818 20.0415C236.767 19.883 236.694 19.6613 236.595 19.3853C236.397 18.834 236.098 18.0626 235.679 17.1437C234.847 15.3155 233.52 12.8539 231.546 10.3691C227.611 5.41856 220.753 0 209.848 0C199.387 0 191.567 5.08613 184.922 9.4079L184.543 9.65466C177.423 14.2822 171.496 17.9998 163.829 17.9998C156.162 17.9998 150.234 14.2822 143.115 9.65466L142.735 9.4079C136.091 5.08613 128.27 0 117.81 0C107.349 0 99.5287 5.08612 92.8837 9.40789L92.5043 9.65466C85.3851 14.2822 79.4574 17.9998 71.7904 17.9998C64.1235 17.9998 58.1958 14.2822 51.0766 9.65466L50.6972 9.40789C44.0522 5.08612 36.2321 0 25.7713 0C14.8096 0 8.27598 5.47203 4.67639 10.4848C2.87774 12.9896 1.7335 15.4672 1.0384 17.3028C0.688772 18.226 0.447426 19.0012 0.291352 19.5552C0.213215 19.8325 0.156159 20.0555 0.117388 20.2151C0.0979944 20.295 0.0831522 20.359 0.0725148 20.4062L0.0596609 20.4642L0.0555127 20.4835L0.0539939 20.4907L0.0533714 20.4936C0.053098 20.4949 0.0528396 20.4962 3.68212 20.9998L0.0528395 20.4962C-0.2885 22.1295 1.05967 23.6791 3.06407 23.9572Z" fill="#0F3229"/>
<path d="M7.31059 47.0071C6.96708 48.6383 5.0669 49.7349 3.06407 49.457C1.05967 49.1788 -0.2885 47.6293 0.0528395 45.996L3.68212 46.4996C0.0528396 45.996 0.053098 45.9947 0.0533714 45.9934L0.0539939 45.9905L0.0555127 45.9833L0.0596609 45.964L0.0725148 45.906C0.0831522 45.8588 0.0979944 45.7947 0.117388 45.7149C0.156159 45.5553 0.213215 45.3323 0.291352 45.0549C0.447426 44.5009 0.688772 43.7258 1.0384 42.8025C1.7335 40.967 2.87774 38.4893 4.67639 35.9846C8.27598 30.9718 14.8096 25.4998 25.7713 25.4998C36.2321 25.4998 44.0522 30.5859 50.6972 34.9077L51.0766 35.1544C58.1958 39.782 64.1235 43.4996 71.7904 43.4996C79.4574 43.4996 85.3851 39.782 92.5043 35.1544L92.8837 34.9077C99.5287 30.5859 107.349 25.4998 117.81 25.4998C128.27 25.4998 136.091 30.5859 142.735 34.9077L143.115 35.1544C150.234 39.782 156.162 43.4996 163.829 43.4996C171.496 43.4996 177.423 39.782 184.543 35.1544L184.922 34.9077C191.567 30.5859 199.387 25.4998 209.848 25.4998C220.753 25.4998 227.611 30.9183 231.546 35.8689C233.52 38.3536 234.847 40.8153 235.679 42.6434C236.098 43.5623 236.397 44.3338 236.595 44.8851C236.694 45.1611 236.767 45.3828 236.818 45.5413C236.843 45.6206 236.863 45.6841 236.877 45.7308L236.894 45.7881L236.9 45.8071L236.902 45.8141L236.903 45.8169C236.903 45.8182 236.903 45.8194 233.318 46.4996L236.903 45.8194C237.364 47.4331 236.133 49.0458 234.152 49.4214C232.174 49.7967 230.198 48.7958 229.734 47.1854L229.733 47.1843L229.733 47.183L229.732 47.1798L229.728 47.1651C229.721 47.1436 229.71 47.1061 229.693 47.0536C229.659 46.9484 229.604 46.7834 229.527 46.5672C229.372 46.1341 229.126 45.4994 228.776 44.7308C228.072 43.1839 226.967 41.1456 225.365 39.1305C222.147 35.0811 217.27 31.4997 209.848 31.4997C202.181 31.4997 196.253 35.2174 189.134 39.8449L188.755 40.0917C184.971 42.5525 180.806 45.2612 175.99 47.1376C172.348 48.5566 168.333 49.4996 163.829 49.4996C159.304 49.4996 155.274 48.5481 151.619 47.1185C146.823 45.2429 142.674 42.5442 138.903 40.0917L138.523 39.8449C131.404 35.2174 125.477 31.4997 117.81 31.4997C110.143 31.4997 104.215 35.2174 97.0958 39.8449L96.7163 40.0917C92.9807 42.5212 88.8738 45.1923 84.1351 47.0656C80.4444 48.5246 76.3705 49.4996 71.7904 49.4996C67.1901 49.4996 63.1004 48.5159 59.3968 47.0462C54.6788 45.1739 50.5873 42.5128 46.8646 40.0917L46.4851 39.8449C39.3659 35.2174 33.4382 31.4997 25.7713 31.4997C18.4055 31.4997 13.8945 35.0276 11.0314 39.0148C9.5987 41.01 8.65705 43.0323 8.0741 44.5717C7.78471 45.3359 7.58899 45.967 7.46775 46.3974C7.40723 46.6122 7.36558 46.7759 7.34029 46.88C7.32766 46.932 7.31914 46.969 7.31443 46.9899L7.31096 47.0053L7.31059 47.0071Z" fill="#0F3229"/>
<path d="M7.31096 72.5051L7.3108 72.5059C6.96782 74.1376 5.06728 75.2347 3.06407 74.9568C1.05967 74.6786 -0.2885 73.1291 0.0528395 71.4957L3.68212 71.9994C0.0528396 71.4957 0.053098 71.4945 0.0533714 71.4932L0.0539939 71.4902L0.0555127 71.4831L0.0596609 71.4638L0.0725148 71.4058C0.0831522 71.3586 0.0979944 71.2945 0.117388 71.2147C0.156159 71.0551 0.213215 70.8321 0.291352 70.5547C0.447426 70.0007 0.688772 69.2256 1.0384 68.3023C1.7335 66.4668 2.87774 63.9891 4.67639 61.4843C8.27598 56.4716 14.8096 50.9995 25.7713 50.9995C36.2321 50.9995 44.0522 56.0857 50.6972 60.4074L51.0766 60.6542C58.1958 65.2817 64.1235 68.9994 71.7904 68.9994C79.4574 68.9994 85.3851 65.2817 92.5043 60.6542L92.8837 60.4074C99.5287 56.0857 107.349 50.9995 117.81 50.9995C128.27 50.9995 136.091 56.0857 142.735 60.4074L143.115 60.6542C150.234 65.2817 156.162 68.9994 163.829 68.9994C171.496 68.9994 177.423 65.2817 184.543 60.6542L184.922 60.4074C191.567 56.0857 199.387 50.9995 209.848 50.9995C220.753 50.9995 227.611 56.4181 231.546 61.3687C233.52 63.8534 234.847 66.3151 235.679 68.1432C236.098 69.0621 236.397 69.8336 236.595 70.3849C236.694 70.6609 236.767 70.8826 236.818 71.0411C236.843 71.1204 236.863 71.1839 236.877 71.2306L236.894 71.2879L236.9 71.3068L236.902 71.3138L236.903 71.3167C236.903 71.318 236.903 71.3192 233.318 71.9994L236.903 71.3192C237.364 72.9329 236.133 74.5455 234.152 74.9212C232.174 75.2964 230.198 74.2956 229.734 72.6851L229.733 72.6841L229.733 72.6827L229.732 72.6795L229.728 72.6648C229.725 72.6552 229.721 72.6422 229.716 72.626C229.71 72.6064 229.702 72.5821 229.693 72.5533C229.659 72.4482 229.604 72.2832 229.527 72.067C229.372 71.6339 229.126 70.9992 228.776 70.2306C228.072 68.6837 226.967 66.6454 225.365 64.6302C222.147 60.5808 217.27 56.9995 209.848 56.9995C202.181 56.9995 196.253 60.7171 189.134 65.3447L188.755 65.5914C184.971 68.0523 180.806 70.761 175.99 72.6374C172.348 74.0563 168.333 74.9993 163.829 74.9993C159.304 74.9993 155.274 74.0479 151.619 72.6183C146.823 70.7426 142.674 68.044 138.903 65.5914L138.523 65.3447C131.404 60.7171 125.477 56.9995 117.81 56.9995C110.143 56.9995 104.215 60.7171 97.0958 65.3447L96.7163 65.5914C92.9807 68.021 88.8738 70.6921 84.1351 72.5654C80.4444 74.0243 76.3705 74.9993 71.7904 74.9993C67.1901 74.9993 63.1004 74.0157 59.3968 72.546C54.6788 70.6737 50.5873 68.0126 46.8647 65.5915L46.4851 65.3447C39.3659 60.7171 33.4382 56.9995 25.7713 56.9995C18.4055 56.9995 13.8945 60.5274 11.0314 64.5145C9.5987 66.5097 8.65705 68.532 8.0741 70.0715C7.78471 70.8357 7.58899 71.4668 7.46775 71.8971C7.40723 72.112 7.36558 72.2757 7.34029 72.3798C7.32766 72.4318 7.31914 72.4688 7.31443 72.4897L7.31096 72.5051Z" fill="#0F3229"/>
</svg>
