<svg width="633" height="650" viewBox="0 0 633 650" fill="none" xmlns="http://www.w3.org/2000/svg">
<mask id="mask0_305_1648" style="mask-type:alpha" maskUnits="userSpaceOnUse" x="0" y="0" width="633" height="650">
<mask id="path-1-outside-1_305_1648" maskUnits="userSpaceOnUse" x="0" y="0" width="633" height="650" fill="black">
<rect fill="white" width="633" height="650"/>
<path d="M316.605 162.561L336.446 1L336.291 163.837L375.664 6.10362L355.823 167.665L414.107 16.1514L374.734 174.045L451 31.1432L392.56 182.657L485.723 50.7603L409.302 193.662L517.655 74.843L424.648 206.58L546.642 102.753L438.134 221.413L571.909 134.173L449.76 237.999L593.146 168.622L459.371 255.862L610.042 205.464L466.656 274.841L622.288 244.219L471.617 294.618L629.729 284.251L474.097 314.713L632.209 324.92L474.097 335.128L629.729 365.59L471.617 355.383L622.288 405.621L466.656 375.159L610.042 444.536L459.371 394.138L593.146 481.378L449.76 412.001L571.909 515.828L438.134 428.428L546.642 547.247L424.648 443.26L517.655 575.157L409.302 456.338L485.723 599.08L392.56 467.184L451 618.697L374.734 475.955L414.107 633.689L355.823 482.176L375.664 643.896L336.291 486.003L336.446 649L316.605 487.279L296.763 649L296.763 486.003L257.39 643.896L277.387 482.176L219.102 633.689L258.475 475.955L182.209 618.697L240.649 467.184L147.486 599.08L223.907 456.338L115.399 575.157L208.561 443.26L86.5667 547.247L195.075 428.428L61.2997 515.828L183.449 412.001L40.063 481.378L173.838 394.138L23.1667 444.536L166.553 375.159L10.9208 405.621L161.592 355.383L3.48019 365.59L159.112 335.128L1 324.92L159.112 314.713L3.48019 284.251L161.592 294.618L10.9208 244.219L166.553 274.841L23.1667 205.464L173.838 255.862L40.063 168.622L183.449 237.999L61.2997 134.173L195.075 221.413L86.5667 102.753L208.561 206.58L115.399 74.843L223.907 193.662L147.486 50.7603L240.649 182.657L182.209 31.1432L258.475 174.045L219.102 16.1514L277.387 167.665L257.39 6.10362L296.763 163.837V1L316.605 162.561Z"/>
</mask>
<path d="M316.605 162.561L336.446 1L336.291 163.837L375.664 6.10362L355.823 167.665L414.107 16.1514L374.734 174.045L451 31.1432L392.56 182.657L485.723 50.7603L409.302 193.662L517.655 74.843L424.648 206.58L546.642 102.753L438.134 221.413L571.909 134.173L449.76 237.999L593.146 168.622L459.371 255.862L610.042 205.464L466.656 274.841L622.288 244.219L471.617 294.618L629.729 284.251L474.097 314.713L632.209 324.92L474.097 335.128L629.729 365.59L471.617 355.383L622.288 405.621L466.656 375.159L610.042 444.536L459.371 394.138L593.146 481.378L449.76 412.001L571.909 515.828L438.134 428.428L546.642 547.247L424.648 443.26L517.655 575.157L409.302 456.338L485.723 599.08L392.56 467.184L451 618.697L374.734 475.955L414.107 633.689L355.823 482.176L375.664 643.896L336.291 486.003L336.446 649L316.605 487.279L296.763 649L296.763 486.003L257.39 643.896L277.387 482.176L219.102 633.689L258.475 475.955L182.209 618.697L240.649 467.184L147.486 599.08L223.907 456.338L115.399 575.157L208.561 443.26L86.5667 547.247L195.075 428.428L61.2997 515.828L183.449 412.001L40.063 481.378L173.838 394.138L23.1667 444.536L166.553 375.159L10.9208 405.621L161.592 355.383L3.48019 365.59L159.112 335.128L1 324.92L159.112 314.713L3.48019 284.251L161.592 294.618L10.9208 244.219L166.553 274.841L23.1667 205.464L173.838 255.862L40.063 168.622L183.449 237.999L61.2997 134.173L195.075 221.413L86.5667 102.753L208.561 206.58L115.399 74.843L223.907 193.662L147.486 50.7603L240.649 182.657L182.209 31.1432L258.475 174.045L219.102 16.1514L277.387 167.665L257.39 6.10362L296.763 163.837V1L316.605 162.561Z" stroke="black" stroke-width="2" stroke-miterlimit="10" mask="url(#path-1-outside-1_305_1648)"/>
</mask>
<g mask="url(#mask0_305_1648)">
<rect x="-802.685" y="-37.1172" width="1119.74" height="702.852" rx="45" fill="black"/>
</g>
</svg>
