<svg width="703" height="464" viewBox="0 0 703 464" fill="none" xmlns="http://www.w3.org/2000/svg">
<g opacity="0.2">
<path d="M611.673 316.809C613.275 322.788 613.132 330.481 611.021 341.239C605.15 369.863 574.141 405.911 541.336 443.988C523.332 464.939 504.702 486.574 490.206 507.188C462.567 539.021 449.667 583.892 437.148 627.328C428.017 659.062 419.358 689.035 405.489 714.168L405.457 714.22C394.536 733.23 381.979 744.121 367.096 747.507C338.054 754.127 304.419 731.014 265.476 704.206L261.729 701.64C232.749 681.796 194.534 657.373 137.874 622.367L133.2 619.362C83.8635 587.683 22.4572 548.229 -24.3998 488.362C-127.276 370.869 -107.429 238.597 -61.5417 186.22C-6.64023 129.708 63.6442 114.488 207.21 127.97C356.929 142.256 492.281 226.491 543.511 262.049C561.397 277.426 575.933 286.175 586.544 292.535C599.962 300.637 608.748 305.895 611.673 316.809ZM400.513 711.717C414.081 687.137 422.636 657.45 431.717 626.031C444.37 582.086 457.465 536.603 485.731 504.086C500.216 483.433 518.951 461.683 537.028 440.669C569.342 403.111 599.871 367.622 605.487 340.399C610.676 313.593 603.809 309.455 583.419 297.157C572.638 290.67 557.839 281.777 539.837 266.302C489.177 231.193 354.838 147.547 206.454 133.377C64.96 120.07 -4.09751 134.832 -57.4424 189.767C-101.941 240.61 -120.977 369.697 -20.0481 484.96C26.3743 544.212 87.3481 583.395 136.315 614.871L140.978 617.836C197.692 652.871 235.959 677.323 265.003 697.237L268.749 699.802C306.595 725.873 339.291 748.334 365.835 742.297C379.101 739.258 390.413 729.26 400.513 711.717Z" fill="#A7CEFC"/>
<path d="M575.828 335.145C578.043 343.41 577.616 352.9 575.931 366.253L575.912 366.517C569.974 392.879 545.622 419.015 519.87 446.644C502.253 465.513 484.093 485.044 469.487 506.59C444.852 538.049 428.659 573.653 412.996 608.04C402.499 631.152 392.561 652.995 380.458 672.967L380.198 673.338C343.424 717.252 317.338 699.815 269.957 668.214C264.808 664.777 259.384 661.156 253.612 657.413C243.497 649.716 232.329 641.613 220.485 633.003C167.819 594.776 95.6989 542.367 26.413 459.739C-50.7205 356.722 -41.1998 258.611 2.42228 207.013C48.2894 154.728 119.411 151.196 242.966 163.03C368.856 178.54 464.863 242.698 516.433 277.175L522.184 281.01C557.185 307.541 571.527 319.095 575.828 335.145ZM570.357 365.597C574.899 329.158 570.214 324.435 518.805 285.356L513.212 281.608C462.032 247.413 366.743 183.751 242.284 168.374C120.8 156.715 50.9591 159.99 6.78309 210.36C-35.4406 260.293 -44.3677 355.75 30.9542 456.372C99.7215 538.407 171.546 590.552 223.958 628.674C235.803 637.284 246.971 645.387 257.023 653.015C262.636 656.672 268.06 660.293 273.252 663.719C320.685 695.348 342.381 709.834 375.743 670.145C387.617 650.492 397.43 628.854 407.855 605.977C423.611 571.264 439.959 535.403 464.897 503.563C479.628 481.811 497.965 462.104 515.718 443.069C540.874 416.072 564.663 390.518 570.357 365.597Z" fill="#A7CEFC"/>
<path d="M545.99 350.708C548.818 361.261 547.496 372.109 544.048 386.106C536.666 409.931 514.484 433.422 491.049 458.28C477.096 473.028 462.705 488.323 450.15 504.761C429.871 528.473 414.051 554.386 398.71 579.398C386.127 599.929 374.272 619.319 361.054 635.633L360.845 635.861C324.757 671.421 298.216 651.782 250.012 616.102L249.453 615.693L241.204 608.915C194.369 570.287 130.212 517.378 72.4161 436.832C8.77594 340.521 26.7058 263.553 61.3264 226.881C98.2441 187.702 159.431 178.489 272.515 195.065C351.692 207.996 429.131 242.982 502.672 299.011C529.385 321.14 541.947 335.621 545.99 350.708ZM356.693 632.286C369.629 616.262 381.401 597.067 393.817 576.752C409.242 551.547 425.239 525.456 445.684 501.528C458.291 484.947 472.84 469.567 486.897 454.704C509.925 430.342 531.648 407.32 538.617 384.809C546.539 352.926 542.536 339.162 499.029 303.212C426.238 247.8 349.664 213.184 271.475 200.418C160.548 184.168 100.84 192.856 65.3944 230.479C29.4788 268.53 19.1411 346.13 77.054 433.826C134.405 513.717 198.224 566.373 244.868 604.794L253.455 611.825C301.997 647.759 324.22 664.211 356.693 632.286Z" fill="#A7CEFC"/>
<path d="M518.12 362.218C521.281 374.015 520.009 386.225 515.01 400.81L514.99 400.902C506.631 423.096 485.552 444.829 463.283 467.826C452.952 478.464 442.319 489.484 432.446 500.989C417.69 516.77 404.6 533.394 391.99 549.46C376.49 569.181 361.836 587.859 346.448 601.615C313.086 627.37 287.292 609.682 248.674 577.54C211.286 543.778 156.682 490.76 113.708 419.36C78.0064 349.752 75.9399 291 107.804 253.778C142.119 213.619 210.739 202.93 296.085 224.444C395.095 244.404 464.718 299.245 483.671 315.584C503.137 333.161 514.142 347.372 518.12 362.218ZM509.683 399.228C518.978 371.965 516.888 353.087 479.807 319.63C461.149 303.556 392.434 249.417 294.666 229.727C211.447 208.761 144.935 218.756 112.133 257.176C81.783 292.66 84.1417 349.312 118.726 416.768C161.276 487.422 215.468 540.077 252.549 573.534C292.277 606.626 314.165 619.813 342.903 597.619C357.736 584.312 372.224 565.851 387.588 546.295C400.302 530.116 413.413 513.4 428.284 497.546C438.147 486.001 448.906 474.947 459.268 464.257C481.056 441.647 501.706 420.33 509.683 399.228Z" fill="#A7CEFC"/>
<path d="M492.334 371.407C495.688 383.926 494.283 396.645 488.504 411.01L488.297 411.409C452.085 470.182 355.57 554.058 336.613 570.276L336.152 570.572C307.18 587.022 283.977 573.628 251.308 543.204C221.852 514.197 180.589 466.981 151.049 406.602C125.677 350.526 126.916 303.103 154.523 272.998C185.201 239.576 243.328 231.7 314 251.339C381.34 267.27 436.206 302.628 465.065 330.418C479.868 345.03 488.775 358.126 492.334 371.407ZM483.363 408.947C494.307 381.458 488.247 361.192 461.021 334.297C432.701 307.008 378.774 272.301 312.434 256.575C244.825 237.792 187.401 245.266 158.707 276.522C132.623 304.928 131.698 350.332 156.185 404.28C185.395 463.93 226.244 510.612 255.352 539.325C286.595 568.454 307.257 580.593 333.193 566.075C387.65 519.487 455.623 453.838 483.363 408.947Z" fill="#A7CEFC"/>
<path d="M468.612 380.086C472.203 393.488 470.651 406.332 463.981 417.538C437.765 462.236 372.396 518.972 330.084 541.879C320.106 546.444 309.229 546.65 297.706 542.598C262.191 530.095 219.984 476.165 184.811 398.287C167.841 353.592 171.545 315.873 195.238 291.978C222.087 264.915 270.168 259.171 327.099 276.214C399.429 298.85 451.452 335.184 466.364 373.377C467.282 375.626 468.02 377.879 468.612 380.086ZM184.507 379.188C185.99 384.725 187.822 390.384 190.042 396.154C224.555 472.574 265.589 525.486 299.746 537.45C309.878 541.014 319.242 540.87 327.616 537.035C369.059 514.577 433.382 458.808 459.131 414.881C466.008 403.276 466.704 389.585 461.132 375.338C446.796 338.625 396.03 303.459 325.322 281.334C271.328 265.182 224.212 270.495 199.275 295.627C180.189 314.89 175.121 344.159 184.507 379.188Z" fill="#A7CEFC"/>
<path d="M445.194 385.027C448.527 397.466 447.264 409.545 441.412 420.273C420.663 458.517 367.067 503.112 326.742 515.637L326.658 515.66C289.146 525.926 242.297 474.486 215.345 393.374C205.056 358.5 210.334 329.175 230.308 310.706C253.198 289.521 291.724 285.391 336.046 299.362C390.036 316.848 429.92 346.157 442.764 377.808C443.736 380.257 444.559 382.66 445.194 385.027ZM325.176 510.466C364.284 498.266 416.302 454.998 436.436 417.822C442.622 406.488 442.984 393.403 437.522 379.901C425.243 349.689 386.606 321.509 334.143 304.516C291.885 291.196 255.395 294.867 234.094 314.595C215.751 331.594 210.934 358.947 220.664 391.734C246.266 468.649 291.221 519.736 325.176 510.466Z" fill="#A7CEFC"/>
<path d="M422.841 389.081C425.754 399.955 424.872 410.599 420.127 420.257C403.609 454.142 360.492 486.639 325.932 491.298C292.617 495.235 256.209 451.363 243.027 391.59C237.634 365.253 243.682 343.162 259.994 329.33C278.691 313.482 308.343 310.483 341.304 321.175C379.932 333.876 409.401 356.385 420.146 381.374C421.286 383.95 422.152 386.513 422.841 389.081ZM250.779 399.533C264.82 451.937 296.565 489.318 325.342 485.908C357.603 481.564 399.537 449.857 415.08 418.04C420.187 407.554 420.147 395.652 414.967 383.536C404.808 359.895 376.544 338.526 339.391 326.29C308.399 316.231 280.794 318.811 263.634 333.343C248.931 345.798 243.567 366.072 248.506 390.38C249.239 393.452 249.972 396.524 250.779 399.533Z" fill="#A7CEFC"/>
<path d="M401.38 392.597C403.724 401.344 403.209 409.997 399.831 418.041C388.091 445.916 355.508 468.537 327.194 468.469C299.14 468.201 273.336 434.69 268.446 392.263C266.409 373.413 272.253 357.613 284.911 347.77C299.242 336.619 320.628 334.501 343.585 341.94C369.818 350.522 389.828 366.104 398.453 384.694C399.688 387.287 400.671 389.948 401.38 392.597ZM327.361 463.048C353.069 463.127 383.882 441.625 394.638 416.121C398.461 407.055 398.012 396.983 393.348 386.965C385.416 369.953 366.113 354.998 341.703 347.003C320.621 340.18 301.219 341.981 288.404 351.909C277.304 360.517 272.218 374.609 274.054 391.535C278.525 430.719 302.461 462.796 327.361 463.048Z" fill="#A7CEFC"/>
<path d="M380.557 395.809C382.18 401.868 382.113 408.165 379.963 414.246C372.938 434.534 350.409 449.172 329.785 446.915C309.234 444.594 292.225 421.241 291.887 394.797C291.719 382.585 296.576 372.338 305.482 365.952C315.298 358.935 329.121 357.468 343.357 361.911C362.911 368.068 376.665 381.284 380.557 395.809ZM374.678 412.651C380.742 395.157 365.905 374.706 341.538 367.043C329.071 363.158 317.096 364.303 308.797 370.268C301.398 375.562 297.373 384.209 297.509 394.623C297.831 418.491 312.651 439.55 330.551 441.548C348.672 443.531 368.458 430.574 374.678 412.651Z" fill="#A7CEFC"/>
<path d="M360.208 399.284C361.09 402.574 361.153 405.998 360.259 409.377C357.196 420.949 345.061 428.544 333.16 426.271C321.407 424.045 312.724 411.62 313.834 398.636C314.364 392.387 317.359 387.112 322.332 383.844C327.566 380.378 334.529 379.501 341.404 381.486C351.122 384.344 358.069 391.299 360.208 399.284ZM320.145 406.578C322.092 413.841 327.582 419.724 334.411 421.033C343.365 422.72 352.537 416.994 354.818 408.211C357.151 399.458 350.335 389.802 339.659 386.728C334.342 385.185 329.322 385.756 325.428 388.348C321.91 390.666 319.778 394.463 319.386 399.041C319.222 401.622 319.5 404.171 320.145 406.578Z" fill="#A7CEFC"/>
</g>
</svg>
