<svg width="310" height="119" viewBox="0 0 310 119" fill="none" xmlns="http://www.w3.org/2000/svg">
<path d="M18.182 -99.182L15 -111L11.818 -99.182L0 -96L11.818 -92.818L15 -81L18.182 -92.818L30 -96L18.182 -99.182Z" fill="#FC6F0E"/>
<path d="M58.182 -99.182L55 -111L51.818 -99.182L40 -96L51.818 -92.818L55 -81L58.182 -92.818L70 -96L58.182 -99.182Z" fill="#FC6F0E"/>
<path d="M95 -111L98.182 -99.182L110 -96L98.182 -92.818L95 -81L91.818 -92.818L80 -96L91.818 -99.182L95 -111Z" fill="#FC6F0E"/>
<path d="M138.182 -99.182L135 -111L131.818 -99.182L120 -96L131.818 -92.818L135 -81L138.182 -92.818L150 -96L138.182 -99.182Z" fill="#FC6F0E"/>
<path d="M175 -111L178.182 -99.182L190 -96L178.182 -92.818L175 -81L171.818 -92.818L160 -96L171.818 -99.182L175 -111Z" fill="#FC6F0E"/>
<path d="M218.182 -99.182L215 -111L211.818 -99.182L200 -96L211.818 -92.818L215 -81L218.182 -92.818L230 -96L218.182 -99.182Z" fill="#FC6F0E"/>
<path d="M255 -111L258.182 -99.182L270 -96L258.182 -92.818L255 -81L251.818 -92.818L240 -96L251.818 -99.182L255 -111Z" fill="#FC6F0E"/>
<path d="M298.182 -99.182L295 -111L291.818 -99.182L280 -96L291.818 -92.818L295 -81L298.182 -92.818L310 -96L298.182 -99.182Z" fill="#FC6F0E"/>
<path d="M15 -71L18.182 -59.182L30 -56L18.182 -52.818L15 -41L11.818 -52.818L0 -56L11.818 -59.182L15 -71Z" fill="#FC6F0E"/>
<path d="M58.182 -59.182L55 -71L51.818 -59.182L40 -56L51.818 -52.818L55 -41L58.182 -52.818L70 -56L58.182 -59.182Z" fill="#FC6F0E"/>
<path d="M95 -71L98.182 -59.182L110 -56L98.182 -52.818L95 -41L91.818 -52.818L80 -56L91.818 -59.182L95 -71Z" fill="#FC6F0E"/>
<path d="M138.182 -59.182L135 -71L131.818 -59.182L120 -56L131.818 -52.818L135 -41L138.182 -52.818L150 -56L138.182 -59.182Z" fill="#FC6F0E"/>
<path d="M175 -71L178.182 -59.182L190 -56L178.182 -52.818L175 -41L171.818 -52.818L160 -56L171.818 -59.182L175 -71Z" fill="#FC6F0E"/>
<path d="M218.182 -59.182L215 -71L211.818 -59.182L200 -56L211.818 -52.818L215 -41L218.182 -52.818L230 -56L218.182 -59.182Z" fill="#FC6F0E"/>
<path d="M255 -71L258.182 -59.182L270 -56L258.182 -52.818L255 -41L251.818 -52.818L240 -56L251.818 -59.182L255 -71Z" fill="#FC6F0E"/>
<path d="M298.182 -59.182L295 -71L291.818 -59.182L280 -56L291.818 -52.818L295 -41L298.182 -52.818L310 -56L298.182 -59.182Z" fill="#FC6F0E"/>
<path d="M15 -31L18.182 -19.182L30 -16L18.182 -12.818L15 -1L11.818 -12.818L0 -16L11.818 -19.182L15 -31Z" fill="#FC6F0E"/>
<path d="M58.182 -19.182L55 -31L51.818 -19.182L40 -16L51.818 -12.818L55 -1L58.182 -12.818L70 -16L58.182 -19.182Z" fill="#FC6F0E"/>
<path d="M95 -31L98.182 -19.182L110 -16L98.182 -12.818L95 -1L91.818 -12.818L80 -16L91.818 -19.182L95 -31Z" fill="#FC6F0E"/>
<path d="M138.182 -19.182L135 -31L131.818 -19.182L120 -16L131.818 -12.818L135 -1L138.182 -12.818L150 -16L138.182 -19.182Z" fill="#FC6F0E"/>
<path d="M175 -31L178.182 -19.182L190 -16L178.182 -12.818L175 -1L171.818 -12.818L160 -16L171.818 -19.182L175 -31Z" fill="#FC6F0E"/>
<path d="M218.182 -19.182L215 -31L211.818 -19.182L200 -16L211.818 -12.818L215 -1L218.182 -12.818L230 -16L218.182 -19.182Z" fill="#FC6F0E"/>
<path d="M255 -31L258.182 -19.182L270 -16L258.182 -12.818L255 -1L251.818 -12.818L240 -16L251.818 -19.182L255 -31Z" fill="#FC6F0E"/>
<path d="M298.182 -19.182L295 -31L291.818 -19.182L280 -16L291.818 -12.818L295 -1L298.182 -12.818L310 -16L298.182 -19.182Z" fill="#FC6F0E"/>
<path d="M15 9L18.182 20.818L30 24L18.182 27.182L15 39L11.818 27.182L0 24L11.818 20.818L15 9Z" fill="#FC6F0E"/>
<path d="M58.182 20.818L55 9L51.818 20.818L40 24L51.818 27.182L55 39L58.182 27.182L70 24L58.182 20.818Z" fill="#FC6F0E"/>
<path d="M95 9L98.182 20.818L110 24L98.182 27.182L95 39L91.818 27.182L80 24L91.818 20.818L95 9Z" fill="#FC6F0E"/>
<path d="M138.182 20.818L135 9L131.818 20.818L120 24L131.818 27.182L135 39L138.182 27.182L150 24L138.182 20.818Z" fill="#FC6F0E"/>
<path d="M175 9L178.182 20.818L190 24L178.182 27.182L175 39L171.818 27.182L160 24L171.818 20.818L175 9Z" fill="#FC6F0E"/>
<path d="M218.182 20.818L215 9L211.818 20.818L200 24L211.818 27.182L215 39L218.182 27.182L230 24L218.182 20.818Z" fill="#FC6F0E"/>
<path d="M255 9L258.182 20.818L270 24L258.182 27.182L255 39L251.818 27.182L240 24L251.818 20.818L255 9Z" fill="#FC6F0E"/>
<path d="M298.182 20.818L295 9L291.818 20.818L280 24L291.818 27.182L295 39L298.182 27.182L310 24L298.182 20.818Z" fill="#FC6F0E"/>
<path d="M15 49L18.182 60.818L30 64L18.182 67.182L15 79L11.818 67.182L0 64L11.818 60.818L15 49Z" fill="#FC6F0E"/>
<path d="M58.182 60.818L55 49L51.818 60.818L40 64L51.818 67.182L55 79L58.182 67.182L70 64L58.182 60.818Z" fill="#FC6F0E"/>
<path d="M95 49L98.182 60.818L110 64L98.182 67.182L95 79L91.818 67.182L80 64L91.818 60.818L95 49Z" fill="#FC6F0E"/>
<path d="M138.182 60.818L135 49L131.818 60.818L120 64L131.818 67.182L135 79L138.182 67.182L150 64L138.182 60.818Z" fill="#FC6F0E"/>
<path d="M175 49L178.182 60.818L190 64L178.182 67.182L175 79L171.818 67.182L160 64L171.818 60.818L175 49Z" fill="#FC6F0E"/>
<path d="M218.182 60.818L215 49L211.818 60.818L200 64L211.818 67.182L215 79L218.182 67.182L230 64L218.182 60.818Z" fill="#FC6F0E"/>
<path d="M255 49L258.182 60.818L270 64L258.182 67.182L255 79L251.818 67.182L240 64L251.818 60.818L255 49Z" fill="#FC6F0E"/>
<path d="M298.182 60.818L295 49L291.818 60.818L280 64L291.818 67.182L295 79L298.182 67.182L310 64L298.182 60.818Z" fill="#FC6F0E"/>
<path d="M15 89L18.182 100.818L30 104L18.182 107.182L15 119L11.818 107.182L0 104L11.818 100.818L15 89Z" fill="#FC6F0E"/>
<path d="M58.182 100.818L55 89L51.818 100.818L40 104L51.818 107.182L55 119L58.182 107.182L70 104L58.182 100.818Z" fill="#FC6F0E"/>
<path d="M95 89L98.182 100.818L110 104L98.182 107.182L95 119L91.818 107.182L80 104L91.818 100.818L95 89Z" fill="#FC6F0E"/>
<path d="M138.182 100.818L135 89L131.818 100.818L120 104L131.818 107.182L135 119L138.182 107.182L150 104L138.182 100.818Z" fill="#FC6F0E"/>
<path d="M175 89L178.182 100.818L190 104L178.182 107.182L175 119L171.818 107.182L160 104L171.818 100.818L175 89Z" fill="#FC6F0E"/>
<path d="M218.182 100.818L215 89L211.818 100.818L200 104L211.818 107.182L215 119L218.182 107.182L230 104L218.182 100.818Z" fill="#FC6F0E"/>
<path d="M255 89L258.182 100.818L270 104L258.182 107.182L255 119L251.818 107.182L240 104L251.818 100.818L255 89Z" fill="#FC6F0E"/>
<path d="M298.182 100.818L295 89L291.818 100.818L280 104L291.818 107.182L295 119L298.182 107.182L310 104L298.182 100.818Z" fill="#FC6F0E"/>
</svg>
