<svg width="2469" height="584" viewBox="0 0 2469 584" fill="none" xmlns="http://www.w3.org/2000/svg">
<mask id="mask0_213_24" style="mask-type:alpha" maskUnits="userSpaceOnUse" x="0" y="0" width="2469" height="584">
<path d="M2399 0C2437.66 0 2469 31.3401 2469 70V514C2469 552.66 2437.66 584 2399 584H70C31.3401 584 0 552.66 0 514V264.667C0 226.007 31.3401 194.667 70 194.667H973V0H2399Z" fill="black"/>
<rect x="2" y="2" width="1391.35" height="348.414" stroke="black" stroke-width="4"/>
</mask>
<g mask="url(#mask0_213_24)">
<path d="M2486 -69H-17V663H2486V-69Z" fill="black"/>
<path d="M2486 -69H-17V663H2486V-69Z" fill="#040A08" fill-opacity="0.149082"/>
<mask id="mask1_213_24" style="mask-type:luminance" maskUnits="userSpaceOnUse" x="-17" y="-69" width="2503" height="732">
<path d="M2486 -69H-17V663H2486V-69Z" fill="white"/>
</mask>
<g mask="url(#mask1_213_24)">
<g filter="url(#filter0_f_213_24)">
<path d="M2337.38 -37.8901H524.274V407.257H2337.38V-37.8901Z" fill="#1EEE97"/>
<path d="M2534.5 70.5376H1167.23V553.2H2534.5V70.5376Z" fill="#030607"/>
<path d="M2004.17 131.842H133.18V585.682H2004.17V131.842Z" fill="#907CFF"/>
<path d="M1972.89 168.442H447.62V559.605H1972.89V168.442Z" fill="#060F15"/>
<path d="M1911.87 230.205H589.978V687.705H1911.87V230.205Z" fill="#193345"/>
</g>
</g>
<g style="mix-blend-mode:overlay">
<path d="M2486 -69H-17V663H2486V-69Z" fill="#808080"/>
</g>
</g>
<path d="M124.156 130H108.875L81.1719 87.7656C79.5469 85.2969 78.4219 83.4375 77.7969 82.1875H77.6094C77.8594 84.5625 77.9844 88.1875 77.9844 93.0625V130H63.6875V62.7812H80L106.672 103.703C107.891 105.547 109.016 107.375 110.047 109.188H110.234C109.984 107.625 109.859 104.547 109.859 99.9531V62.7812H124.156V130ZM181.203 110.219H149.891C150.391 117.188 154.781 120.672 163.062 120.672C168.344 120.672 172.984 119.422 176.984 116.922V127.609C172.547 129.984 166.781 131.172 159.688 131.172C151.938 131.172 145.922 129.031 141.641 124.75C137.359 120.438 135.219 114.438 135.219 106.75C135.219 98.7812 137.531 92.4688 142.156 87.8125C146.781 83.1562 152.469 80.8281 159.219 80.8281C166.219 80.8281 171.625 82.9062 175.438 87.0625C179.281 91.2188 181.203 96.8594 181.203 103.984V110.219ZM167.469 101.125C167.469 94.25 164.688 90.8125 159.125 90.8125C156.75 90.8125 154.688 91.7969 152.938 93.7656C151.219 95.7344 150.172 98.1875 149.797 101.125H167.469ZM259.531 82L245.703 130H230.141L223.062 101.875C222.594 100 222.328 97.9531 222.266 95.7344H221.984C221.766 98.1719 221.453 100.156 221.047 101.688L213.453 130H198.078L184.531 82H199.625L206.234 113.312C206.547 114.781 206.781 116.562 206.938 118.656H207.219C207.375 116.469 207.656 114.625 208.062 113.125L216.312 82H230.422L237.828 113.312C238.016 114.094 238.234 115.906 238.484 118.75H238.812C238.969 116.938 239.219 115.125 239.562 113.312L245.797 82H259.531ZM323 131.172C313.375 131.172 305.531 128.047 299.469 121.797C293.406 115.516 290.375 107.344 290.375 97.2812C290.375 86.6562 293.453 78.0625 299.609 71.5C305.766 64.9375 313.922 61.6562 324.078 61.6562C333.672 61.6562 341.422 64.7969 347.328 71.0781C353.266 77.3594 356.234 85.6406 356.234 95.9219C356.234 106.484 353.156 115 347 121.469C340.875 127.938 332.875 131.172 323 131.172ZM323.656 74.6875C318.344 74.6875 314.125 76.6875 311 80.6875C307.875 84.6562 306.312 89.9219 306.312 96.4844C306.312 103.141 307.875 108.406 311 112.281C314.125 116.156 318.219 118.094 323.281 118.094C328.5 118.094 332.641 116.219 335.703 112.469C338.766 108.688 340.297 103.453 340.297 96.7656C340.297 89.7969 338.812 84.375 335.844 80.5C332.875 76.625 328.812 74.6875 323.656 74.6875ZM380.984 124.422H380.797V152.078H365.984V82H380.797V89.2188H380.984C384.641 83.625 389.781 80.8281 396.406 80.8281C402.625 80.8281 407.422 82.9688 410.797 87.25C414.203 91.5 415.906 97.2969 415.906 104.641C415.906 112.641 413.922 119.062 409.953 123.906C406.016 128.75 400.766 131.172 394.203 131.172C388.422 131.172 384.016 128.922 380.984 124.422ZM380.562 104.734V108.578C380.562 111.891 381.438 114.594 383.188 116.688C384.938 118.781 387.234 119.828 390.078 119.828C393.453 119.828 396.062 118.531 397.906 115.938C399.781 113.312 400.719 109.609 400.719 104.828C400.719 96.3906 397.438 92.1719 390.875 92.1719C387.844 92.1719 385.359 93.3281 383.422 95.6406C381.516 97.9219 380.562 100.953 380.562 104.734ZM440.516 124.422H440.328V152.078H425.516V82H440.328V89.2188H440.516C444.172 83.625 449.312 80.8281 455.938 80.8281C462.156 80.8281 466.953 82.9688 470.328 87.25C473.734 91.5 475.438 97.2969 475.438 104.641C475.438 112.641 473.453 119.062 469.484 123.906C465.547 128.75 460.297 131.172 453.734 131.172C447.953 131.172 443.547 128.922 440.516 124.422ZM440.094 104.734V108.578C440.094 111.891 440.969 114.594 442.719 116.688C444.469 118.781 446.766 119.828 449.609 119.828C452.984 119.828 455.594 118.531 457.438 115.938C459.312 113.312 460.25 109.609 460.25 104.828C460.25 96.3906 456.969 92.1719 450.406 92.1719C447.375 92.1719 444.891 93.3281 442.953 95.6406C441.047 97.9219 440.094 100.953 440.094 104.734ZM507.922 131.172C499.922 131.172 493.625 128.938 489.031 124.469C484.469 119.969 482.188 113.875 482.188 106.188C482.188 98.25 484.562 92.0469 489.312 87.5781C494.062 83.0781 500.484 80.8281 508.578 80.8281C516.547 80.8281 522.797 83.0781 527.328 87.5781C531.859 92.0469 534.125 97.9688 534.125 105.344C534.125 113.312 531.781 119.609 527.094 124.234C522.438 128.859 516.047 131.172 507.922 131.172ZM508.297 92.1719C504.797 92.1719 502.078 93.375 500.141 95.7812C498.203 98.1875 497.234 101.594 497.234 106C497.234 115.219 500.953 119.828 508.391 119.828C515.484 119.828 519.031 115.094 519.031 105.625C519.031 96.6562 515.453 92.1719 508.297 92.1719ZM575.047 95.3594C573.266 94.3906 571.188 93.9062 568.812 93.9062C565.594 93.9062 563.078 95.0938 561.266 97.4688C559.453 99.8125 558.547 103.016 558.547 107.078V130H543.734V82H558.547V90.9062H558.734C561.078 84.4062 565.297 81.1562 571.391 81.1562C572.953 81.1562 574.172 81.3438 575.047 81.7188V95.3594ZM613.812 129.438C611.625 130.594 608.328 131.172 603.922 131.172C593.484 131.172 588.266 125.75 588.266 114.906V92.9219H580.484V82H588.266V71.6406L603.031 67.4219V82H613.812V92.9219H603.031V112.328C603.031 117.328 605.016 119.828 608.984 119.828C610.547 119.828 612.156 119.375 613.812 118.469V129.438ZM667.812 130H653.047V122.688H652.812C649.156 128.344 644.266 131.172 638.141 131.172C627.016 131.172 621.453 124.438 621.453 110.969V82H636.219V109.656C636.219 116.438 638.906 119.828 644.281 119.828C646.938 119.828 649.062 118.906 650.656 117.062C652.25 115.188 653.047 112.656 653.047 109.469V82H667.812V130ZM726.688 130H711.922V103.328C711.922 95.8906 709.266 92.1719 703.953 92.1719C701.391 92.1719 699.281 93.1562 697.625 95.125C695.969 97.0938 695.141 99.5938 695.141 102.625V130H680.328V82H695.141V89.5938H695.328C698.859 83.75 704 80.8281 710.75 80.8281C721.375 80.8281 726.688 87.4219 726.688 100.609V130ZM745.953 74.4062C743.453 74.4062 741.406 73.6719 739.812 72.2031C738.219 70.7031 737.422 68.875 737.422 66.7188C737.422 64.5 738.219 62.6875 739.812 61.2812C741.406 59.875 743.453 59.1719 745.953 59.1719C748.484 59.1719 750.531 59.875 752.094 61.2812C753.688 62.6875 754.484 64.5 754.484 66.7188C754.484 68.9688 753.688 70.8125 752.094 72.25C750.531 73.6875 748.484 74.4062 745.953 74.4062ZM753.266 130H738.453V82H753.266V130ZM794.75 129.438C792.562 130.594 789.266 131.172 784.859 131.172C774.422 131.172 769.203 125.75 769.203 114.906V92.9219H761.422V82H769.203V71.6406L783.969 67.4219V82H794.75V92.9219H783.969V112.328C783.969 117.328 785.953 119.828 789.922 119.828C791.484 119.828 793.094 119.375 794.75 118.469V129.438ZM810.641 74.4062C808.141 74.4062 806.094 73.6719 804.5 72.2031C802.906 70.7031 802.109 68.875 802.109 66.7188C802.109 64.5 802.906 62.6875 804.5 61.2812C806.094 59.875 808.141 59.1719 810.641 59.1719C813.172 59.1719 815.219 59.875 816.781 61.2812C818.375 62.6875 819.172 64.5 819.172 66.7188C819.172 68.9688 818.375 70.8125 816.781 72.25C815.219 73.6875 813.172 74.4062 810.641 74.4062ZM817.953 130H803.141V82H817.953V130ZM873.547 110.219H842.234C842.734 117.188 847.125 120.672 855.406 120.672C860.688 120.672 865.328 119.422 869.328 116.922V127.609C864.891 129.984 859.125 131.172 852.031 131.172C844.281 131.172 838.266 129.031 833.984 124.75C829.703 120.438 827.562 114.438 827.562 106.75C827.562 98.7812 829.875 92.4688 834.5 87.8125C839.125 83.1562 844.812 80.8281 851.562 80.8281C858.562 80.8281 863.969 82.9062 867.781 87.0625C871.625 91.2188 873.547 96.8594 873.547 103.984V110.219ZM859.812 101.125C859.812 94.25 857.031 90.8125 851.469 90.8125C849.094 90.8125 847.031 91.7969 845.281 93.7656C843.562 95.7344 842.516 98.1875 842.141 101.125H859.812ZM879.219 128.734V116.734C881.656 118.203 884.078 119.297 886.484 120.016C888.922 120.734 891.219 121.094 893.375 121.094C896 121.094 898.062 120.734 899.562 120.016C901.094 119.297 901.859 118.203 901.859 116.734C901.859 115.797 901.516 115.016 900.828 114.391C900.141 113.766 899.25 113.219 898.156 112.75C897.094 112.281 895.922 111.859 894.641 111.484C893.359 111.109 892.125 110.688 890.938 110.219C889.031 109.5 887.344 108.734 885.875 107.922C884.438 107.078 883.219 106.109 882.219 105.016C881.25 103.922 880.5 102.656 879.969 101.219C879.469 99.7812 879.219 98.0781 879.219 96.1094C879.219 93.4219 879.797 91.1094 880.953 89.1719C882.141 87.2344 883.703 85.6562 885.641 84.4375C887.609 83.1875 889.844 82.2812 892.344 81.7188C894.875 81.125 897.5 80.8281 900.219 80.8281C902.344 80.8281 904.5 81 906.688 81.3438C908.875 81.6562 911.031 82.125 913.156 82.75V94.1875C911.281 93.0938 909.266 92.2812 907.109 91.75C904.984 91.1875 902.891 90.9062 900.828 90.9062C899.859 90.9062 898.938 91 898.062 91.1875C897.219 91.3438 896.469 91.5938 895.812 91.9375C895.156 92.25 894.641 92.6719 894.266 93.2031C893.891 93.7031 893.703 94.2812 893.703 94.9375C893.703 95.8125 893.984 96.5625 894.547 97.1875C895.109 97.8125 895.844 98.3594 896.75 98.8281C897.656 99.2656 898.656 99.6719 899.75 100.047C900.875 100.391 901.984 100.75 903.078 101.125C905.047 101.812 906.828 102.562 908.422 103.375C910.016 104.188 911.375 105.141 912.5 106.234C913.656 107.328 914.531 108.609 915.125 110.078C915.75 111.547 916.062 113.297 916.062 115.328C916.062 118.172 915.438 120.609 914.188 122.641C912.969 124.641 911.328 126.281 909.266 127.562C907.234 128.812 904.875 129.719 902.188 130.281C899.531 130.875 896.766 131.172 893.891 131.172C888.609 131.172 883.719 130.359 879.219 128.734Z" fill="black"/>
<defs>
<filter id="filter0_f_213_24" x="-116.82" y="-287.89" width="2901.32" height="1225.6" filterUnits="userSpaceOnUse" color-interpolation-filters="sRGB">
<feFlood flood-opacity="0" result="BackgroundImageFix"/>
<feBlend mode="normal" in="SourceGraphic" in2="BackgroundImageFix" result="shape"/>
<feGaussianBlur stdDeviation="125" result="effect1_foregroundBlur_213_24"/>
</filter>
</defs>
</svg>
