<svg width="2469" height="584" viewBox="0 0 2469 584" fill="none" xmlns="http://www.w3.org/2000/svg">
<path d="M64.5938 127.422V112.422C67.3125 114.703 70.2656 116.422 73.4531 117.578C76.6406 118.703 79.8594 119.266 83.1094 119.266C85.0156 119.266 86.6719 119.094 88.0781 118.75C89.5156 118.406 90.7031 117.938 91.6406 117.344C92.6094 116.719 93.3281 116 93.7969 115.188C94.2656 114.344 94.5 113.438 94.5 112.469C94.5 111.156 94.125 109.984 93.375 108.953C92.625 107.922 91.5938 106.969 90.2812 106.094C89 105.219 87.4688 104.375 85.6875 103.562C83.9062 102.75 81.9844 101.922 79.9219 101.078C74.6719 98.8906 70.75 96.2188 68.1562 93.0625C65.5938 89.9062 64.3125 86.0938 64.3125 81.625C64.3125 78.125 65.0156 75.125 66.4219 72.625C67.8281 70.0938 69.7344 68.0156 72.1406 66.3906C74.5781 64.7656 77.3906 63.5781 80.5781 62.8281C83.7656 62.0469 87.1406 61.6562 90.7031 61.6562C94.2031 61.6562 97.2969 61.875 99.9844 62.3125C102.703 62.7188 105.203 63.3594 107.484 64.2344V78.25C106.359 77.4688 105.125 76.7812 103.781 76.1875C102.469 75.5938 101.109 75.1094 99.7031 74.7344C98.2969 74.3281 96.8906 74.0312 95.4844 73.8438C94.1094 73.6562 92.7969 73.5625 91.5469 73.5625C89.8281 73.5625 88.2656 73.7344 86.8594 74.0781C85.4531 74.3906 84.2656 74.8438 83.2969 75.4375C82.3281 76.0312 81.5781 76.75 81.0469 77.5938C80.5156 78.4062 80.25 79.3281 80.25 80.3594C80.25 81.4844 80.5469 82.5 81.1406 83.4062C81.7344 84.2812 82.5781 85.125 83.6719 85.9375C84.7656 86.7188 86.0938 87.5 87.6562 88.2812C89.2188 89.0312 90.9844 89.8125 92.9531 90.625C95.6406 91.75 98.0469 92.9531 100.172 94.2344C102.328 95.4844 104.172 96.9062 105.703 98.5C107.234 100.094 108.406 101.922 109.219 103.984C110.031 106.016 110.438 108.391 110.438 111.109C110.438 114.859 109.719 118.016 108.281 120.578C106.875 123.109 104.953 125.172 102.516 126.766C100.078 128.328 97.2344 129.453 93.9844 130.141C90.7656 130.828 87.3594 131.172 83.7656 131.172C80.0781 131.172 76.5625 130.859 73.2188 130.234C69.9062 129.609 67.0312 128.672 64.5938 127.422ZM165.656 130H150.891V122.688H150.656C147 128.344 142.109 131.172 135.984 131.172C124.859 131.172 119.297 124.438 119.297 110.969V82H134.062V109.656C134.062 116.438 136.75 119.828 142.125 119.828C144.781 119.828 146.906 118.906 148.5 117.062C150.094 115.188 150.891 112.656 150.891 109.469V82H165.656V130ZM254.391 130H239.625V102.625C239.625 95.6562 237.062 92.1719 231.938 92.1719C229.5 92.1719 227.516 93.2188 225.984 95.3125C224.453 97.4062 223.688 100.016 223.688 103.141V130H208.875V102.344C208.875 95.5625 206.359 92.1719 201.328 92.1719C198.797 92.1719 196.766 93.1719 195.234 95.1719C193.734 97.1719 192.984 99.8906 192.984 103.328V130H178.172V82H192.984V89.5H193.172C194.703 86.9375 196.844 84.8594 199.594 83.2656C202.375 81.6406 205.406 80.8281 208.688 80.8281C215.469 80.8281 220.109 83.8125 222.609 89.7812C226.266 83.8125 231.641 80.8281 238.734 80.8281C249.172 80.8281 254.391 87.2656 254.391 100.141V130ZM342.328 130H327.562V102.625C327.562 95.6562 325 92.1719 319.875 92.1719C317.438 92.1719 315.453 93.2188 313.922 95.3125C312.391 97.4062 311.625 100.016 311.625 103.141V130H296.812V102.344C296.812 95.5625 294.297 92.1719 289.266 92.1719C286.734 92.1719 284.703 93.1719 283.172 95.1719C281.672 97.1719 280.922 99.8906 280.922 103.328V130H266.109V82H280.922V89.5H281.109C282.641 86.9375 284.781 84.8594 287.531 83.2656C290.312 81.6406 293.344 80.8281 296.625 80.8281C303.406 80.8281 308.047 83.8125 310.547 89.7812C314.203 83.8125 319.578 80.8281 326.672 80.8281C337.109 80.8281 342.328 87.2656 342.328 100.141V130ZM397.172 110.219H365.859C366.359 117.188 370.75 120.672 379.031 120.672C384.312 120.672 388.953 119.422 392.953 116.922V127.609C388.516 129.984 382.75 131.172 375.656 131.172C367.906 131.172 361.891 129.031 357.609 124.75C353.328 120.438 351.188 114.438 351.188 106.75C351.188 98.7812 353.5 92.4688 358.125 87.8125C362.75 83.1562 368.438 80.8281 375.188 80.8281C382.188 80.8281 387.594 82.9062 391.406 87.0625C395.25 91.2188 397.172 96.8594 397.172 103.984V110.219ZM383.438 101.125C383.438 94.25 380.656 90.8125 375.094 90.8125C372.719 90.8125 370.656 91.7969 368.906 93.7656C367.188 95.7344 366.141 98.1875 365.766 101.125H383.438ZM437.297 95.3594C435.516 94.3906 433.438 93.9062 431.062 93.9062C427.844 93.9062 425.328 95.0938 423.516 97.4688C421.703 99.8125 420.797 103.016 420.797 107.078V130H405.984V82H420.797V90.9062H420.984C423.328 84.4062 427.547 81.1562 433.641 81.1562C435.203 81.1562 436.422 81.3438 437.297 81.7188V95.3594ZM487.359 106.844V130H472.219V62.7812H495.938C512.875 62.7812 521.344 69.9219 521.344 84.2031C521.344 90.9531 518.906 96.4219 514.031 100.609C509.188 104.766 502.703 106.844 494.578 106.844H487.359ZM487.359 74.4062V95.3594H493.312C501.375 95.3594 505.406 91.8281 505.406 84.7656C505.406 77.8594 501.375 74.4062 493.312 74.4062H487.359ZM561.047 95.3594C559.266 94.3906 557.188 93.9062 554.812 93.9062C551.594 93.9062 549.078 95.0938 547.266 97.4688C545.453 99.8125 544.547 103.016 544.547 107.078V130H529.734V82H544.547V90.9062H544.734C547.078 84.4062 551.297 81.1562 557.391 81.1562C558.953 81.1562 560.172 81.3438 561.047 81.7188V95.3594ZM590.484 131.172C582.484 131.172 576.188 128.938 571.594 124.469C567.031 119.969 564.75 113.875 564.75 106.188C564.75 98.25 567.125 92.0469 571.875 87.5781C576.625 83.0781 583.047 80.8281 591.141 80.8281C599.109 80.8281 605.359 83.0781 609.891 87.5781C614.422 92.0469 616.688 97.9688 616.688 105.344C616.688 113.312 614.344 119.609 609.656 124.234C605 128.859 598.609 131.172 590.484 131.172ZM590.859 92.1719C587.359 92.1719 584.641 93.375 582.703 95.7812C580.766 98.1875 579.797 101.594 579.797 106C579.797 115.219 583.516 119.828 590.953 119.828C598.047 119.828 601.594 115.094 601.594 105.625C601.594 96.6562 598.016 92.1719 590.859 92.1719ZM673.359 124.516C673.359 133.422 670.781 140.312 665.625 145.188C660.469 150.094 653 152.547 643.219 152.547C636.75 152.547 631.625 151.625 627.844 149.781V137.312C632.781 140.188 637.766 141.625 642.797 141.625C647.797 141.625 651.672 140.297 654.422 137.641C657.172 135.016 658.547 131.438 658.547 126.906V123.109H658.359C654.984 128.484 650 131.172 643.406 131.172C637.281 131.172 632.422 129.016 628.828 124.703C625.234 120.391 623.438 114.609 623.438 107.359C623.438 99.2344 625.438 92.7812 629.438 88C633.438 83.2188 638.703 80.8281 645.234 80.8281C651.078 80.8281 655.453 83.0781 658.359 87.5781H658.547V82H673.359V124.516ZM658.734 106.938V103.141C658.734 100.109 657.828 97.5312 656.016 95.4062C654.234 93.25 651.906 92.1719 649.031 92.1719C645.75 92.1719 643.172 93.4531 641.297 96.0156C639.422 98.5781 638.484 102.188 638.484 106.844C638.484 110.844 639.375 114.016 641.156 116.359C642.938 118.672 645.375 119.828 648.469 119.828C651.531 119.828 654 118.656 655.875 116.312C657.781 113.938 658.734 110.812 658.734 106.938ZM717.047 95.3594C715.266 94.3906 713.188 93.9062 710.812 93.9062C707.594 93.9062 705.078 95.0938 703.266 97.4688C701.453 99.8125 700.547 103.016 700.547 107.078V130H685.734V82H700.547V90.9062H700.734C703.078 84.4062 707.297 81.1562 713.391 81.1562C714.953 81.1562 716.172 81.3438 717.047 81.7188V95.3594ZM763.922 130H749.906V123.109H749.719C746.5 128.484 741.734 131.172 735.422 131.172C730.766 131.172 727.094 129.859 724.406 127.234C721.75 124.578 720.422 121.047 720.422 116.641C720.422 107.328 725.938 101.953 736.969 100.516L750 98.7812C750 93.5312 747.156 90.9062 741.469 90.9062C735.75 90.9062 730.312 92.6094 725.156 96.0156V84.8594C727.219 83.7969 730.031 82.8594 733.594 82.0469C737.188 81.2344 740.453 80.8281 743.391 80.8281C757.078 80.8281 763.922 87.6562 763.922 101.312V130ZM750 110.5V107.266L741.281 108.391C736.469 109.016 734.062 111.188 734.062 114.906C734.062 116.594 734.641 117.984 735.797 119.078C736.984 120.141 738.578 120.672 740.578 120.672C743.359 120.672 745.625 119.719 747.375 117.812C749.125 115.875 750 113.438 750 110.5ZM851.859 130H837.094V102.625C837.094 95.6562 834.531 92.1719 829.406 92.1719C826.969 92.1719 824.984 93.2188 823.453 95.3125C821.922 97.4062 821.156 100.016 821.156 103.141V130H806.344V102.344C806.344 95.5625 803.828 92.1719 798.797 92.1719C796.266 92.1719 794.234 93.1719 792.703 95.1719C791.203 97.1719 790.453 99.8906 790.453 103.328V130H775.641V82H790.453V89.5H790.641C792.172 86.9375 794.312 84.8594 797.062 83.2656C799.844 81.6406 802.875 80.8281 806.156 80.8281C812.938 80.8281 817.578 83.8125 820.078 89.7812C823.734 83.8125 829.109 80.8281 836.203 80.8281C846.641 80.8281 851.859 87.2656 851.859 100.141V130ZM860.438 128.734V116.734C862.875 118.203 865.297 119.297 867.703 120.016C870.141 120.734 872.438 121.094 874.594 121.094C877.219 121.094 879.281 120.734 880.781 120.016C882.312 119.297 883.078 118.203 883.078 116.734C883.078 115.797 882.734 115.016 882.047 114.391C881.359 113.766 880.469 113.219 879.375 112.75C878.312 112.281 877.141 111.859 875.859 111.484C874.578 111.109 873.344 110.688 872.156 110.219C870.25 109.5 868.562 108.734 867.094 107.922C865.656 107.078 864.438 106.109 863.438 105.016C862.469 103.922 861.719 102.656 861.188 101.219C860.688 99.7812 860.438 98.0781 860.438 96.1094C860.438 93.4219 861.016 91.1094 862.172 89.1719C863.359 87.2344 864.922 85.6562 866.859 84.4375C868.828 83.1875 871.062 82.2812 873.562 81.7188C876.094 81.125 878.719 80.8281 881.438 80.8281C883.562 80.8281 885.719 81 887.906 81.3438C890.094 81.6562 892.25 82.125 894.375 82.75V94.1875C892.5 93.0938 890.484 92.2812 888.328 91.75C886.203 91.1875 884.109 90.9062 882.047 90.9062C881.078 90.9062 880.156 91 879.281 91.1875C878.438 91.3438 877.688 91.5938 877.031 91.9375C876.375 92.25 875.859 92.6719 875.484 93.2031C875.109 93.7031 874.922 94.2812 874.922 94.9375C874.922 95.8125 875.203 96.5625 875.766 97.1875C876.328 97.8125 877.062 98.3594 877.969 98.8281C878.875 99.2656 879.875 99.6719 880.969 100.047C882.094 100.391 883.203 100.75 884.297 101.125C886.266 101.812 888.047 102.562 889.641 103.375C891.234 104.188 892.594 105.141 893.719 106.234C894.875 107.328 895.75 108.609 896.344 110.078C896.969 111.547 897.281 113.297 897.281 115.328C897.281 118.172 896.656 120.609 895.406 122.641C894.188 124.641 892.547 126.281 890.484 127.562C888.453 128.812 886.094 129.719 883.406 130.281C880.75 130.875 877.984 131.172 875.109 131.172C869.828 131.172 864.938 130.359 860.438 128.734Z" fill="black"/>
<mask id="mask0_184_68" style="mask-type:alpha" maskUnits="userSpaceOnUse" x="0" y="0" width="2469" height="584">
<path d="M2399 0C2437.66 0 2469 31.3401 2469 70V514C2469 552.66 2437.66 584 2399 584H70C31.3401 584 0 552.66 0 514V264.667C0 226.007 31.3401 194.667 70 194.667H973V0H2399Z" fill="black"/>
<rect x="2" y="2" width="1391.35" height="348.414" stroke="black" stroke-width="4"/>
</mask>
<g mask="url(#mask0_184_68)">
<path d="M2486 -69H-17V663H2486V-69Z" fill="black"/>
<path d="M2486 -69H-17V663H2486V-69Z" fill="#040A08" fill-opacity="0.149082"/>
<mask id="mask1_184_68" style="mask-type:luminance" maskUnits="userSpaceOnUse" x="-17" y="-69" width="2503" height="732">
<path d="M2486 -69H-17V663H2486V-69Z" fill="white"/>
</mask>
<g mask="url(#mask1_184_68)">
<g filter="url(#filter0_f_184_68)">
<path d="M2337.38 -37.8901H524.274V407.257H2337.38V-37.8901Z" fill="#1EEE97"/>
<path d="M2534.5 70.5376H1167.23V553.2H2534.5V70.5376Z" fill="#030607"/>
<path d="M2004.17 131.842H133.18V585.682H2004.17V131.842Z" fill="#907CFF"/>
<path d="M1972.89 168.442H447.62V559.605H1972.89V168.442Z" fill="#060F15"/>
<path d="M1911.87 230.205H589.978V687.705H1911.87V230.205Z" fill="#193345"/>
</g>
</g>
<g style="mix-blend-mode:overlay">
<path d="M2486 -69H-17V663H2486V-69Z" fill="#808080"/>
</g>
</g>
<defs>
<filter id="filter0_f_184_68" x="-116.82" y="-287.89" width="2901.32" height="1225.6" filterUnits="userSpaceOnUse" color-interpolation-filters="sRGB">
<feFlood flood-opacity="0" result="BackgroundImageFix"/>
<feBlend mode="normal" in="SourceGraphic" in2="BackgroundImageFix" result="shape"/>
<feGaussianBlur stdDeviation="125" result="effect1_foregroundBlur_184_68"/>
</filter>
</defs>
</svg>
