<svg width="2469" height="584" viewBox="0 0 2469 584" fill="none" xmlns="http://www.w3.org/2000/svg">
<mask id="mask0_173_48" style="mask-type:alpha" maskUnits="userSpaceOnUse" x="0" y="0" width="2469" height="541">
<path d="M2399 0C2437.66 3.38522e-05 2469 31.3401 2469 70V470.511C2469 509.171 2437.66 540.511 2399 540.511H70C31.3401 540.511 6.04117e-05 509.171 0 470.511V250.17C0.000115848 211.51 31.3401 180.17 70 180.17H620.068V0H2399Z" fill="black"/>
<rect x="2" y="2" width="1391.35" height="322.17" stroke="black" stroke-width="4"/>
</mask>
<g mask="url(#mask0_173_48)">
<path d="M2573.55 -23.2979H0V796.787H2573.55V-23.2979Z" fill="black"/>
<path d="M2573.55 -23.2979H0V796.787H2573.55V-23.2979Z" fill="#1BC47D" fill-opacity="0.267926"/>
<mask id="mask1_173_48" style="mask-type:luminance" maskUnits="userSpaceOnUse" x="0" y="-24" width="2574" height="821">
<path d="M2573.55 -23.2979H0V796.787H2573.55V-23.2979Z" fill="white"/>
</mask>
<g mask="url(#mask1_173_48)">
<g filter="url(#filter0_f_173_48)">
<path d="M2308.15 276.033H755.98V818.315H2308.15V276.033Z" fill="#EE46D3"/>
<path d="M2247.03 80.7504H241.27V682.488H2247.03V80.7504Z" fill="#18A0FB"/>
<path d="M2269.55 194.537H968.299V653.272H2269.55V194.537Z" fill="#18A0FB"/>
<path d="M1973.59 112.016H28.9531V575.364H1973.59V112.016Z" fill="#907CFF"/>
<path d="M2124.79 68.4491H828.361V639.433H2124.79V68.4491Z" fill="#907CFF"/>
<path d="M2460.96 244.255H461.632V751.17H2460.96V244.255Z" fill="#FFC700"/>
</g>
</g>
</g>
<mask id="mask2_173_48" style="mask-type:alpha" maskUnits="userSpaceOnUse" x="0" y="0" width="2469" height="584">
<path d="M2469 0H0V584H2469V0Z" fill="#808080"/>
</mask>
<g mask="url(#mask2_173_48)">
</g>
<path d="M126.891 62.1094H107.719V117H92.5312V62.1094H73.4531V49.7812H126.891V62.1094ZM168.984 97.2188H137.672C138.172 104.188 142.562 107.672 150.844 107.672C156.125 107.672 160.766 106.422 164.766 103.922V114.609C160.328 116.984 154.562 118.172 147.469 118.172C139.719 118.172 133.703 116.031 129.422 111.75C125.141 107.438 123 101.438 123 93.75C123 85.7812 125.312 79.4688 129.938 74.8125C134.562 70.1562 140.25 67.8281 147 67.8281C154 67.8281 159.406 69.9062 163.219 74.0625C167.062 78.2188 168.984 83.8594 168.984 90.9844V97.2188ZM155.25 88.125C155.25 81.25 152.469 77.8125 146.906 77.8125C144.531 77.8125 142.469 78.7969 140.719 80.7656C139 82.7344 137.953 85.1875 137.578 88.125H155.25ZM254.016 117H239.25V89.625C239.25 82.6562 236.688 79.1719 231.562 79.1719C229.125 79.1719 227.141 80.2188 225.609 82.3125C224.078 84.4062 223.312 87.0156 223.312 90.1406V117H208.5V89.3438C208.5 82.5625 205.984 79.1719 200.953 79.1719C198.422 79.1719 196.391 80.1719 194.859 82.1719C193.359 84.1719 192.609 86.8906 192.609 90.3281V117H177.797V69H192.609V76.5H192.797C194.328 73.9375 196.469 71.8594 199.219 70.2656C202 68.6406 205.031 67.8281 208.312 67.8281C215.094 67.8281 219.734 70.8125 222.234 76.7812C225.891 70.8125 231.266 67.8281 238.359 67.8281C248.797 67.8281 254.016 74.2656 254.016 87.1406V117ZM280.734 111.422H280.547V139.078H265.734V69H280.547V76.2188H280.734C284.391 70.625 289.531 67.8281 296.156 67.8281C302.375 67.8281 307.172 69.9688 310.547 74.25C313.953 78.5 315.656 84.2969 315.656 91.6406C315.656 99.6406 313.672 106.062 309.703 110.906C305.766 115.75 300.516 118.172 293.953 118.172C288.172 118.172 283.766 115.922 280.734 111.422ZM280.312 91.7344V95.5781C280.312 98.8906 281.188 101.594 282.938 103.688C284.688 105.781 286.984 106.828 289.828 106.828C293.203 106.828 295.812 105.531 297.656 102.938C299.531 100.312 300.469 96.6094 300.469 91.8281C300.469 83.3906 297.188 79.1719 290.625 79.1719C287.594 79.1719 285.109 80.3281 283.172 82.6406C281.266 84.9219 280.312 87.9531 280.312 91.7344ZM340.078 117H325.266V45.9375H340.078V117ZM392.484 117H378.469V110.109H378.281C375.062 115.484 370.297 118.172 363.984 118.172C359.328 118.172 355.656 116.859 352.969 114.234C350.312 111.578 348.984 108.047 348.984 103.641C348.984 94.3281 354.5 88.9531 365.531 87.5156L378.562 85.7812C378.562 80.5312 375.719 77.9062 370.031 77.9062C364.312 77.9062 358.875 79.6094 353.719 83.0156V71.8594C355.781 70.7969 358.594 69.8594 362.156 69.0469C365.75 68.2344 369.016 67.8281 371.953 67.8281C385.641 67.8281 392.484 74.6562 392.484 88.3125V117ZM378.562 97.5V94.2656L369.844 95.3906C365.031 96.0156 362.625 98.1875 362.625 101.906C362.625 103.594 363.203 104.984 364.359 106.078C365.547 107.141 367.141 107.672 369.141 107.672C371.922 107.672 374.188 106.719 375.938 104.812C377.688 102.875 378.562 100.438 378.562 97.5ZM433.219 116.438C431.031 117.594 427.734 118.172 423.328 118.172C412.891 118.172 407.672 112.75 407.672 101.906V79.9219H399.891V69H407.672V58.6406L422.438 54.4219V69H433.219V79.9219H422.438V99.3281C422.438 104.328 424.422 106.828 428.391 106.828C429.953 106.828 431.562 106.375 433.219 105.469V116.438ZM484.359 97.2188H453.047C453.547 104.188 457.938 107.672 466.219 107.672C471.5 107.672 476.141 106.422 480.141 103.922V114.609C475.703 116.984 469.938 118.172 462.844 118.172C455.094 118.172 449.078 116.031 444.797 111.75C440.516 107.438 438.375 101.438 438.375 93.75C438.375 85.7812 440.688 79.4688 445.312 74.8125C449.938 70.1562 455.625 67.8281 462.375 67.8281C469.375 67.8281 474.781 69.9062 478.594 74.0625C482.438 78.2188 484.359 83.8594 484.359 90.9844V97.2188ZM470.625 88.125C470.625 81.25 467.844 77.8125 462.281 77.8125C459.906 77.8125 457.844 78.7969 456.094 80.7656C454.375 82.7344 453.328 85.1875 452.953 88.125H470.625ZM490.031 115.734V103.734C492.469 105.203 494.891 106.297 497.297 107.016C499.734 107.734 502.031 108.094 504.188 108.094C506.812 108.094 508.875 107.734 510.375 107.016C511.906 106.297 512.672 105.203 512.672 103.734C512.672 102.797 512.328 102.016 511.641 101.391C510.953 100.766 510.062 100.219 508.969 99.75C507.906 99.2812 506.734 98.8594 505.453 98.4844C504.172 98.1094 502.938 97.6875 501.75 97.2188C499.844 96.5 498.156 95.7344 496.688 94.9219C495.25 94.0781 494.031 93.1094 493.031 92.0156C492.062 90.9219 491.312 89.6562 490.781 88.2188C490.281 86.7812 490.031 85.0781 490.031 83.1094C490.031 80.4219 490.609 78.1094 491.766 76.1719C492.953 74.2344 494.516 72.6562 496.453 71.4375C498.422 70.1875 500.656 69.2812 503.156 68.7188C505.688 68.125 508.312 67.8281 511.031 67.8281C513.156 67.8281 515.312 68 517.5 68.3438C519.688 68.6562 521.844 69.125 523.969 69.75V81.1875C522.094 80.0938 520.078 79.2812 517.922 78.75C515.797 78.1875 513.703 77.9062 511.641 77.9062C510.672 77.9062 509.75 78 508.875 78.1875C508.031 78.3438 507.281 78.5938 506.625 78.9375C505.969 79.25 505.453 79.6719 505.078 80.2031C504.703 80.7031 504.516 81.2812 504.516 81.9375C504.516 82.8125 504.797 83.5625 505.359 84.1875C505.922 84.8125 506.656 85.3594 507.562 85.8281C508.469 86.2656 509.469 86.6719 510.562 87.0469C511.688 87.3906 512.797 87.75 513.891 88.125C515.859 88.8125 517.641 89.5625 519.234 90.375C520.828 91.1875 522.188 92.1406 523.312 93.2344C524.469 94.3281 525.344 95.6094 525.938 97.0781C526.562 98.5469 526.875 100.297 526.875 102.328C526.875 105.172 526.25 107.609 525 109.641C523.781 111.641 522.141 113.281 520.078 114.562C518.047 115.812 515.688 116.719 513 117.281C510.344 117.875 507.578 118.172 504.703 118.172C499.422 118.172 494.531 117.359 490.031 115.734Z" fill="black"/>
<defs>
<filter id="filter0_f_173_48" x="-221.047" y="-181.551" width="2932.01" height="1249.87" filterUnits="userSpaceOnUse" color-interpolation-filters="sRGB">
<feFlood flood-opacity="0" result="BackgroundImageFix"/>
<feBlend mode="normal" in="SourceGraphic" in2="BackgroundImageFix" result="shape"/>
<feGaussianBlur stdDeviation="125" result="effect1_foregroundBlur_173_48"/>
</filter>
</defs>
</svg>
